<svg width="464" height="50" viewBox="0 0 464 50" fill="none" xmlns="http://www.w3.org/2000/svg">
<g filter="url(#filter0_b_3_4)">
<mask id="path-1-outside-1_3_4" maskUnits="userSpaceOnUse" x="-9" y="-19" width="482" height="78" fill="black">
<rect fill="white" x="-9" y="-19" width="482" height="78"/>
<path d="M32.408 38.656L34.008 41.856C33.4107 43.136 32.5787 44.416 31.512 45.696C30.4453 46.9333 29.336 48.0427 28.184 49.024L7.896 47.36L5.144 49.024C3.352 48.384 1.96533 47.424 0.984 46.144L3.48 26.496L2.712 3.2L4.568 1.92C5.03733 2.00533 5.69867 2.26133 6.552 2.688C7.448 3.072 8.28 3.49866 9.048 3.968L27.864 1.92C29.0587 2.64533 30.104 3.47733 31 4.416C31.9387 5.35466 32.8133 6.4 33.624 7.552L32.728 11.008L10.584 10.432L10.2 22.784L24.6 20.672C25.9653 21.3973 27.096 22.144 27.992 22.912C28.9307 23.68 29.72 24.6187 30.36 25.728L29.4 29.44L10.072 28.8V41.344L32.408 38.656ZM131.227 22.144C131.44 22.7413 131.611 23.488 131.739 24.384C131.91 25.28 132.038 26.1547 132.123 27.008L130.651 29.184H113.691C113.52 28.5867 113.35 27.8827 113.179 27.072C113.008 26.2613 112.88 25.344 112.795 24.32L114.267 22.144H131.227ZM145.263 41.28L164.975 37.312L166.575 40.576C165.892 41.8987 164.932 43.2427 163.695 44.608C162.457 45.9307 161.263 47.0613 160.111 48H147.567C146.884 47.9147 145.967 47.5733 144.815 46.976C143.705 46.3787 142.553 45.6533 141.359 44.8C140.164 43.904 139.119 42.9867 138.223 42.048C137.327 41.0667 136.751 40.192 136.495 39.424L138.223 10.752C138.649 10.0267 139.247 9.17333 140.015 8.192C140.825 7.168 141.7 6.18666 142.639 5.248C143.577 4.26666 144.431 3.456 145.199 2.816C148.313 2.21866 151.428 1.92 154.543 1.92C157.7 1.92 160.836 2.38933 163.951 3.328C164.548 3.88266 165.145 4.608 165.743 5.504C166.34 6.35733 166.809 7.12533 167.151 7.808L166.255 17.216C165.529 17.472 164.569 17.6213 163.375 17.664C162.18 17.664 161.156 17.5787 160.303 17.408L159.407 9.408C157.316 9.23733 155.161 9.216 152.943 9.344C150.767 9.42933 148.697 9.77066 146.735 10.368C146.095 12.416 145.561 14.8267 145.135 17.6C144.751 20.3733 144.495 23.2533 144.367 26.24C144.239 29.184 144.239 31.9787 144.367 34.624C144.537 37.2693 144.836 39.488 145.263 41.28ZM195.807 29.056L205.023 46.336L201.887 49.024C200.692 48.8107 199.348 48.3413 197.855 47.616C196.362 46.8907 195.06 45.9733 193.951 44.864L189.855 29.888L180.447 30.208V46.016L175.519 49.024C173.727 48.384 172.34 47.424 171.359 46.144L173.855 26.496L173.087 3.2L174.943 1.92C175.54 2.00533 176.394 2.32533 177.503 2.88C178.655 3.43466 179.615 4.01066 180.383 4.608C182.132 3.75467 183.967 3.11467 185.887 2.688C187.85 2.26133 189.727 2.00533 191.519 1.92C193.354 1.83466 194.954 1.94133 196.319 2.24C197.471 2.88 198.559 3.69066 199.583 4.672C200.607 5.65333 201.503 6.656 202.271 7.68C203.082 8.66133 203.679 9.51466 204.063 10.24L203.231 23.04L195.807 29.056ZM195.551 9.344C194.228 9.13066 192.714 9.06666 191.007 9.152C189.3 9.19467 187.572 9.38667 185.823 9.728C184.116 10.0693 182.495 10.5813 180.959 11.264L180.575 24.32L195.487 21.12C195.743 18.9867 195.871 16.896 195.871 14.848C195.914 12.7573 195.807 10.9227 195.551 9.344ZM235.102 1.92C235.571 2.00533 236.211 2.24 237.022 2.624C237.833 3.008 238.622 3.43466 239.39 3.904C240.201 4.37333 240.798 4.82133 241.182 5.248L240.03 40.576C239.262 41.856 238.174 43.2 236.766 44.608C235.401 46.016 234.121 47.1467 232.926 48H219.742C219.059 47.9147 218.185 47.616 217.118 47.104C216.051 46.5493 214.942 45.888 213.79 45.12C212.638 44.3093 211.593 43.456 210.654 42.56C209.758 41.664 209.118 40.832 208.734 40.064L210.526 26.496L209.758 3.2L211.614 1.92C212.083 2.00533 212.723 2.26133 213.534 2.688C214.387 3.11467 215.219 3.66933 216.03 4.352C216.841 4.992 217.438 5.73866 217.822 6.592L217.246 27.328C217.203 29.9307 217.225 32.4693 217.31 34.944C217.395 37.376 217.63 39.4667 218.014 41.216L232.158 38.528L234.014 26.496L233.246 3.2L235.102 1.92ZM311.712 26.88L317.664 46.848L314.4 49.024C313.205 48.8107 311.925 48.3413 310.56 47.616C309.194 46.8907 307.957 45.9733 306.848 44.864L305.888 35.456L291.168 35.392L287.328 48H283.552C282.656 47.1467 281.845 46.144 281.12 44.992C280.394 43.7973 279.818 42.432 279.392 40.896L287.008 26.432L292.896 10.048L286.176 10.496C285.578 9.472 285.237 8.27733 285.152 6.912C285.109 5.54667 285.237 4.33066 285.536 3.264H298.656C299.466 3.69066 300.362 4.30933 301.344 5.12C302.368 5.888 303.349 6.76267 304.288 7.744C305.269 8.68266 306.101 9.664 306.784 10.688L311.712 26.88ZM293.28 28.672L305.12 28.544L305.056 27.84L299.488 10.432L293.28 28.672ZM346.212 2.24C347.364 2.88 348.431 3.69066 349.412 4.672C350.436 5.65333 351.332 6.63466 352.1 7.616C352.868 8.59733 353.444 9.45066 353.828 10.176L352.74 41.088C352.356 41.856 351.695 42.688 350.756 43.584C349.86 44.48 348.836 45.3333 347.684 46.144C346.532 46.912 345.423 47.552 344.356 48.064C343.289 48.6187 342.415 48.9387 341.732 49.024L327.844 47.104L324.644 49.024C322.852 48.384 321.465 47.424 320.484 46.144L322.98 26.496L322.212 3.2L324.068 1.92C324.495 2.00533 325.071 2.21866 325.796 2.56C326.564 2.85867 327.311 3.22133 328.036 3.648C328.804 4.07467 329.423 4.48 329.892 4.864C331.641 3.968 333.519 3.28533 335.524 2.816C337.529 2.34667 339.471 2.06933 341.348 1.984C343.225 1.856 344.847 1.94133 346.212 2.24ZM329.572 41.472L344.292 39.744C344.761 37.6533 345.145 35.264 345.444 32.576C345.785 29.888 345.999 27.136 346.084 24.32C346.212 21.504 346.191 18.7947 346.02 16.192C345.849 13.5893 345.529 11.3493 345.06 9.472C343.481 9.25866 341.775 9.23733 339.94 9.408C338.148 9.536 336.377 9.81333 334.628 10.24C332.921 10.624 331.407 11.136 330.084 11.776L329.572 27.328V41.472ZM389.658 38.656L391.258 41.856C390.661 43.136 389.829 44.416 388.762 45.696C387.695 46.9333 386.586 48.0427 385.434 49.024L365.146 47.36L362.394 49.024C360.602 48.384 359.215 47.424 358.234 46.144L360.73 26.496L359.962 3.2L361.818 1.92C362.287 2.00533 362.949 2.26133 363.802 2.688C364.698 3.072 365.53 3.49866 366.298 3.968L385.114 1.92C386.309 2.64533 387.354 3.47733 388.25 4.416C389.189 5.35466 390.063 6.4 390.874 7.552L389.978 11.008L367.834 10.432L367.45 22.784L381.85 20.672C383.215 21.3973 384.346 22.144 385.242 22.912C386.181 23.68 386.97 24.6187 387.61 25.728L386.65 29.44L367.322 28.8V41.344L389.658 38.656ZM419.432 29.056L428.648 46.336L425.512 49.024C424.317 48.8107 422.973 48.3413 421.48 47.616C419.987 46.8907 418.685 45.9733 417.576 44.864L413.48 29.888L404.072 30.208V46.016L399.144 49.024C397.352 48.384 395.965 47.424 394.984 46.144L397.48 26.496L396.712 3.2L398.568 1.92C399.165 2.00533 400.019 2.32533 401.128 2.88C402.28 3.43466 403.24 4.01066 404.008 4.608C405.757 3.75467 407.592 3.11467 409.512 2.688C411.475 2.26133 413.352 2.00533 415.144 1.92C416.979 1.83466 418.579 1.94133 419.944 2.24C421.096 2.88 422.184 3.69066 423.208 4.672C424.232 5.65333 425.128 6.656 425.896 7.68C426.707 8.66133 427.304 9.51466 427.688 10.24L426.856 23.04L419.432 29.056ZM419.176 9.344C417.853 9.13066 416.339 9.06666 414.632 9.152C412.925 9.19467 411.197 9.38667 409.448 9.728C407.741 10.0693 406.12 10.5813 404.584 11.264L404.2 24.32L419.112 21.12C419.368 18.9867 419.496 16.896 419.496 14.848C419.539 12.7573 419.432 10.9227 419.176 9.344Z"/>
<path d="M63.462 2.24C64.614 2.88 65.6807 3.69066 66.662 4.672C67.686 5.65333 68.582 6.63466 69.35 7.616C70.118 8.59733 70.694 9.45066 71.078 10.176L69.99 41.088C69.606 41.856 68.9447 42.688 68.006 43.584C67.11 44.48 66.086 45.3333 64.934 46.144C63.782 46.912 62.6727 47.552 61.606 48.064C60.5393 48.6187 59.6647 48.9387 58.982 49.024L45.094 47.104L41.894 49.024C40.102 48.384 38.7153 47.424 37.734 46.144L40.23 26.496L39.462 3.2L41.318 1.92C41.7447 2.00533 42.3207 2.21866 43.046 2.56C43.814 2.85867 44.5607 3.22133 45.286 3.648C46.054 4.07467 46.6727 4.48 47.142 4.864C48.8913 3.968 50.7687 3.28533 52.774 2.816C54.7793 2.34667 56.7207 2.06933 58.598 1.984C60.4753 1.856 62.0967 1.94133 63.462 2.24ZM46.822 41.472L61.542 39.744C62.0113 37.6533 62.3953 35.264 62.694 32.576C63.0353 29.888 63.2487 27.136 63.334 24.32C63.462 21.504 63.4407 18.7947 63.27 16.192C63.0993 13.5893 62.7793 11.3493 62.31 9.472C60.7313 9.25866 59.0247 9.23733 57.19 9.408C55.398 9.536 53.6273 9.81333 51.878 10.24C50.1713 10.624 48.6567 11.136 47.334 11.776L46.822 27.328V41.472ZM101.852 1.92C102.321 2.00533 102.961 2.24 103.772 2.624C104.583 3.008 105.372 3.43466 106.14 3.904C106.951 4.37333 107.548 4.82133 107.932 5.248L106.78 40.576C106.012 41.856 104.924 43.2 103.516 44.608C102.151 46.016 100.871 47.1467 99.676 48H86.492C85.8093 47.9147 84.9347 47.616 83.868 47.104C82.8013 46.5493 81.692 45.888 80.54 45.12C79.388 44.3093 78.3427 43.456 77.404 42.56C76.508 41.664 75.868 40.832 75.484 40.064L77.276 26.496L76.508 3.2L78.364 1.92C78.8333 2.00533 79.4733 2.26133 80.284 2.688C81.1373 3.11467 81.9693 3.66933 82.78 4.352C83.5907 4.992 84.188 5.73866 84.572 6.592L83.996 27.328C83.9533 29.9307 83.9747 32.4693 84.06 34.944C84.1453 37.376 84.38 39.4667 84.764 41.216L98.908 38.528L100.764 26.496L99.996 3.2L101.852 1.92Z"/>
<path d="M253.917 11.904C254.386 13.3973 255.304 14.784 256.669 16.064C258.034 17.344 259.634 18.624 261.469 19.904C263.346 21.1413 265.266 22.4853 267.229 23.936C269.234 25.3867 271.112 27.0507 272.861 28.928C274.653 30.8053 276.104 33.0027 277.213 35.52C276.957 37.184 276.338 38.8693 275.357 40.576C274.376 42.24 273.202 43.7547 271.837 45.12C270.472 46.4853 269.064 47.552 267.613 48.32C266.077 48.576 264.306 48.7467 262.301 48.832C260.296 48.96 258.205 48.9173 256.029 48.704C253.896 48.4907 251.826 48.064 249.821 47.424C249.224 46.9547 248.52 46.2507 247.709 45.312C246.898 44.3733 246.194 43.4987 245.597 42.688L246.621 32.832C247.432 32.576 248.37 32.4053 249.437 32.32C250.546 32.2347 251.528 32.32 252.381 32.576L252.957 40.896C254.664 41.152 256.52 41.2373 258.525 41.152C260.573 41.0667 262.578 40.832 264.541 40.448C266.546 40.0213 268.274 39.424 269.725 38.656C268.872 36.9493 267.656 35.392 266.077 33.984C264.498 32.5333 262.749 31.1467 260.829 29.824C258.952 28.4587 257.074 27.072 255.197 25.664C253.32 24.256 251.613 22.7627 250.077 21.184C248.584 19.6053 247.453 17.8347 246.685 15.872C246.984 14.208 247.496 12.5653 248.221 10.944C248.989 9.28 249.864 7.78666 250.845 6.464C251.869 5.09866 252.872 4.07466 253.853 3.392C260.04 1.64266 266.333 1.408 272.733 2.688C273.16 2.944 273.586 3.392 274.013 4.032C274.44 4.62933 274.845 5.26933 275.229 5.952C275.656 6.63467 275.997 7.168 276.253 7.552L275.293 16.256C274.482 16.5547 273.565 16.704 272.541 16.704C271.56 16.704 270.578 16.5973 269.597 16.384L269.021 9.472C267.57 9.344 265.949 9.344 264.157 9.472C262.365 9.55733 260.573 9.792 258.781 10.176C256.989 10.56 255.368 11.136 253.917 11.904Z"/>
<path d="M440.167 11.904C440.636 13.3973 441.554 14.784 442.919 16.064C444.284 17.344 445.884 18.624 447.719 19.904C449.596 21.1413 451.516 22.4853 453.479 23.936C455.484 25.3867 457.362 27.0507 459.111 28.928C460.903 30.8053 462.354 33.0027 463.463 35.52C463.207 37.184 462.588 38.8693 461.607 40.576C460.626 42.24 459.452 43.7547 458.087 45.12C456.722 46.4853 455.314 47.552 453.863 48.32C452.327 48.576 450.556 48.7467 448.551 48.832C446.546 48.96 444.455 48.9173 442.279 48.704C440.146 48.4907 438.076 48.064 436.071 47.424C435.474 46.9547 434.77 46.2507 433.959 45.312C433.148 44.3733 432.444 43.4987 431.847 42.688L432.871 32.832C433.682 32.576 434.62 32.4053 435.687 32.32C436.796 32.2347 437.778 32.32 438.631 32.576L439.207 40.896C440.914 41.152 442.77 41.2373 444.775 41.152C446.823 41.0667 448.828 40.832 450.791 40.448C452.796 40.0213 454.524 39.424 455.975 38.656C455.122 36.9493 453.906 35.392 452.327 33.984C450.748 32.5333 448.999 31.1467 447.079 29.824C445.202 28.4587 443.324 27.072 441.447 25.664C439.57 24.256 437.863 22.7627 436.327 21.184C434.834 19.6053 433.703 17.8347 432.935 15.872C433.234 14.208 433.746 12.5653 434.471 10.944C435.239 9.28 436.114 7.78666 437.095 6.464C438.119 5.09866 439.122 4.07466 440.103 3.392C446.29 1.64266 452.583 1.408 458.983 2.688C459.41 2.944 459.836 3.392 460.263 4.032C460.69 4.62933 461.095 5.26933 461.479 5.952C461.906 6.63467 462.247 7.168 462.503 7.552L461.543 16.256C460.732 16.5547 459.815 16.704 458.791 16.704C457.81 16.704 456.828 16.5973 455.847 16.384L455.271 9.472C453.82 9.344 452.199 9.344 450.407 9.472C448.615 9.55733 446.823 9.792 445.031 10.176C443.239 10.56 441.618 11.136 440.167 11.904Z"/>
</mask>
<path d="M32.408 38.656L34.008 41.856C33.4107 43.136 32.5787 44.416 31.512 45.696C30.4453 46.9333 29.336 48.0427 28.184 49.024L7.896 47.36L5.144 49.024C3.352 48.384 1.96533 47.424 0.984 46.144L3.48 26.496L2.712 3.2L4.568 1.92C5.03733 2.00533 5.69867 2.26133 6.552 2.688C7.448 3.072 8.28 3.49866 9.048 3.968L27.864 1.92C29.0587 2.64533 30.104 3.47733 31 4.416C31.9387 5.35466 32.8133 6.4 33.624 7.552L32.728 11.008L10.584 10.432L10.2 22.784L24.6 20.672C25.9653 21.3973 27.096 22.144 27.992 22.912C28.9307 23.68 29.72 24.6187 30.36 25.728L29.4 29.44L10.072 28.8V41.344L32.408 38.656ZM131.227 22.144C131.44 22.7413 131.611 23.488 131.739 24.384C131.91 25.28 132.038 26.1547 132.123 27.008L130.651 29.184H113.691C113.52 28.5867 113.35 27.8827 113.179 27.072C113.008 26.2613 112.88 25.344 112.795 24.32L114.267 22.144H131.227ZM145.263 41.28L164.975 37.312L166.575 40.576C165.892 41.8987 164.932 43.2427 163.695 44.608C162.457 45.9307 161.263 47.0613 160.111 48H147.567C146.884 47.9147 145.967 47.5733 144.815 46.976C143.705 46.3787 142.553 45.6533 141.359 44.8C140.164 43.904 139.119 42.9867 138.223 42.048C137.327 41.0667 136.751 40.192 136.495 39.424L138.223 10.752C138.649 10.0267 139.247 9.17333 140.015 8.192C140.825 7.168 141.7 6.18666 142.639 5.248C143.577 4.26666 144.431 3.456 145.199 2.816C148.313 2.21866 151.428 1.92 154.543 1.92C157.7 1.92 160.836 2.38933 163.951 3.328C164.548 3.88266 165.145 4.608 165.743 5.504C166.34 6.35733 166.809 7.12533 167.151 7.808L166.255 17.216C165.529 17.472 164.569 17.6213 163.375 17.664C162.18 17.664 161.156 17.5787 160.303 17.408L159.407 9.408C157.316 9.23733 155.161 9.216 152.943 9.344C150.767 9.42933 148.697 9.77066 146.735 10.368C146.095 12.416 145.561 14.8267 145.135 17.6C144.751 20.3733 144.495 23.2533 144.367 26.24C144.239 29.184 144.239 31.9787 144.367 34.624C144.537 37.2693 144.836 39.488 145.263 41.28ZM195.807 29.056L205.023 46.336L201.887 49.024C200.692 48.8107 199.348 48.3413 197.855 47.616C196.362 46.8907 195.06 45.9733 193.951 44.864L189.855 29.888L180.447 30.208V46.016L175.519 49.024C173.727 48.384 172.34 47.424 171.359 46.144L173.855 26.496L173.087 3.2L174.943 1.92C175.54 2.00533 176.394 2.32533 177.503 2.88C178.655 3.43466 179.615 4.01066 180.383 4.608C182.132 3.75467 183.967 3.11467 185.887 2.688C187.85 2.26133 189.727 2.00533 191.519 1.92C193.354 1.83466 194.954 1.94133 196.319 2.24C197.471 2.88 198.559 3.69066 199.583 4.672C200.607 5.65333 201.503 6.656 202.271 7.68C203.082 8.66133 203.679 9.51466 204.063 10.24L203.231 23.04L195.807 29.056ZM195.551 9.344C194.228 9.13066 192.714 9.06666 191.007 9.152C189.3 9.19467 187.572 9.38667 185.823 9.728C184.116 10.0693 182.495 10.5813 180.959 11.264L180.575 24.32L195.487 21.12C195.743 18.9867 195.871 16.896 195.871 14.848C195.914 12.7573 195.807 10.9227 195.551 9.344ZM235.102 1.92C235.571 2.00533 236.211 2.24 237.022 2.624C237.833 3.008 238.622 3.43466 239.39 3.904C240.201 4.37333 240.798 4.82133 241.182 5.248L240.03 40.576C239.262 41.856 238.174 43.2 236.766 44.608C235.401 46.016 234.121 47.1467 232.926 48H219.742C219.059 47.9147 218.185 47.616 217.118 47.104C216.051 46.5493 214.942 45.888 213.79 45.12C212.638 44.3093 211.593 43.456 210.654 42.56C209.758 41.664 209.118 40.832 208.734 40.064L210.526 26.496L209.758 3.2L211.614 1.92C212.083 2.00533 212.723 2.26133 213.534 2.688C214.387 3.11467 215.219 3.66933 216.03 4.352C216.841 4.992 217.438 5.73866 217.822 6.592L217.246 27.328C217.203 29.9307 217.225 32.4693 217.31 34.944C217.395 37.376 217.63 39.4667 218.014 41.216L232.158 38.528L234.014 26.496L233.246 3.2L235.102 1.92ZM311.712 26.88L317.664 46.848L314.4 49.024C313.205 48.8107 311.925 48.3413 310.56 47.616C309.194 46.8907 307.957 45.9733 306.848 44.864L305.888 35.456L291.168 35.392L287.328 48H283.552C282.656 47.1467 281.845 46.144 281.12 44.992C280.394 43.7973 279.818 42.432 279.392 40.896L287.008 26.432L292.896 10.048L286.176 10.496C285.578 9.472 285.237 8.27733 285.152 6.912C285.109 5.54667 285.237 4.33066 285.536 3.264H298.656C299.466 3.69066 300.362 4.30933 301.344 5.12C302.368 5.888 303.349 6.76267 304.288 7.744C305.269 8.68266 306.101 9.664 306.784 10.688L311.712 26.88ZM293.28 28.672L305.12 28.544L305.056 27.84L299.488 10.432L293.28 28.672ZM346.212 2.24C347.364 2.88 348.431 3.69066 349.412 4.672C350.436 5.65333 351.332 6.63466 352.1 7.616C352.868 8.59733 353.444 9.45066 353.828 10.176L352.74 41.088C352.356 41.856 351.695 42.688 350.756 43.584C349.86 44.48 348.836 45.3333 347.684 46.144C346.532 46.912 345.423 47.552 344.356 48.064C343.289 48.6187 342.415 48.9387 341.732 49.024L327.844 47.104L324.644 49.024C322.852 48.384 321.465 47.424 320.484 46.144L322.98 26.496L322.212 3.2L324.068 1.92C324.495 2.00533 325.071 2.21866 325.796 2.56C326.564 2.85867 327.311 3.22133 328.036 3.648C328.804 4.07467 329.423 4.48 329.892 4.864C331.641 3.968 333.519 3.28533 335.524 2.816C337.529 2.34667 339.471 2.06933 341.348 1.984C343.225 1.856 344.847 1.94133 346.212 2.24ZM329.572 41.472L344.292 39.744C344.761 37.6533 345.145 35.264 345.444 32.576C345.785 29.888 345.999 27.136 346.084 24.32C346.212 21.504 346.191 18.7947 346.02 16.192C345.849 13.5893 345.529 11.3493 345.06 9.472C343.481 9.25866 341.775 9.23733 339.94 9.408C338.148 9.536 336.377 9.81333 334.628 10.24C332.921 10.624 331.407 11.136 330.084 11.776L329.572 27.328V41.472ZM389.658 38.656L391.258 41.856C390.661 43.136 389.829 44.416 388.762 45.696C387.695 46.9333 386.586 48.0427 385.434 49.024L365.146 47.36L362.394 49.024C360.602 48.384 359.215 47.424 358.234 46.144L360.73 26.496L359.962 3.2L361.818 1.92C362.287 2.00533 362.949 2.26133 363.802 2.688C364.698 3.072 365.53 3.49866 366.298 3.968L385.114 1.92C386.309 2.64533 387.354 3.47733 388.25 4.416C389.189 5.35466 390.063 6.4 390.874 7.552L389.978 11.008L367.834 10.432L367.45 22.784L381.85 20.672C383.215 21.3973 384.346 22.144 385.242 22.912C386.181 23.68 386.97 24.6187 387.61 25.728L386.65 29.44L367.322 28.8V41.344L389.658 38.656ZM419.432 29.056L428.648 46.336L425.512 49.024C424.317 48.8107 422.973 48.3413 421.48 47.616C419.987 46.8907 418.685 45.9733 417.576 44.864L413.48 29.888L404.072 30.208V46.016L399.144 49.024C397.352 48.384 395.965 47.424 394.984 46.144L397.48 26.496L396.712 3.2L398.568 1.92C399.165 2.00533 400.019 2.32533 401.128 2.88C402.28 3.43466 403.24 4.01066 404.008 4.608C405.757 3.75467 407.592 3.11467 409.512 2.688C411.475 2.26133 413.352 2.00533 415.144 1.92C416.979 1.83466 418.579 1.94133 419.944 2.24C421.096 2.88 422.184 3.69066 423.208 4.672C424.232 5.65333 425.128 6.656 425.896 7.68C426.707 8.66133 427.304 9.51466 427.688 10.24L426.856 23.04L419.432 29.056ZM419.176 9.344C417.853 9.13066 416.339 9.06666 414.632 9.152C412.925 9.19467 411.197 9.38667 409.448 9.728C407.741 10.0693 406.12 10.5813 404.584 11.264L404.2 24.32L419.112 21.12C419.368 18.9867 419.496 16.896 419.496 14.848C419.539 12.7573 419.432 10.9227 419.176 9.344Z" fill="#00DFDF"/>
<path d="M63.462 2.24C64.614 2.88 65.6807 3.69066 66.662 4.672C67.686 5.65333 68.582 6.63466 69.35 7.616C70.118 8.59733 70.694 9.45066 71.078 10.176L69.99 41.088C69.606 41.856 68.9447 42.688 68.006 43.584C67.11 44.48 66.086 45.3333 64.934 46.144C63.782 46.912 62.6727 47.552 61.606 48.064C60.5393 48.6187 59.6647 48.9387 58.982 49.024L45.094 47.104L41.894 49.024C40.102 48.384 38.7153 47.424 37.734 46.144L40.23 26.496L39.462 3.2L41.318 1.92C41.7447 2.00533 42.3207 2.21866 43.046 2.56C43.814 2.85867 44.5607 3.22133 45.286 3.648C46.054 4.07467 46.6727 4.48 47.142 4.864C48.8913 3.968 50.7687 3.28533 52.774 2.816C54.7793 2.34667 56.7207 2.06933 58.598 1.984C60.4753 1.856 62.0967 1.94133 63.462 2.24ZM46.822 41.472L61.542 39.744C62.0113 37.6533 62.3953 35.264 62.694 32.576C63.0353 29.888 63.2487 27.136 63.334 24.32C63.462 21.504 63.4407 18.7947 63.27 16.192C63.0993 13.5893 62.7793 11.3493 62.31 9.472C60.7313 9.25866 59.0247 9.23733 57.19 9.408C55.398 9.536 53.6273 9.81333 51.878 10.24C50.1713 10.624 48.6567 11.136 47.334 11.776L46.822 27.328V41.472ZM101.852 1.92C102.321 2.00533 102.961 2.24 103.772 2.624C104.583 3.008 105.372 3.43466 106.14 3.904C106.951 4.37333 107.548 4.82133 107.932 5.248L106.78 40.576C106.012 41.856 104.924 43.2 103.516 44.608C102.151 46.016 100.871 47.1467 99.676 48H86.492C85.8093 47.9147 84.9347 47.616 83.868 47.104C82.8013 46.5493 81.692 45.888 80.54 45.12C79.388 44.3093 78.3427 43.456 77.404 42.56C76.508 41.664 75.868 40.832 75.484 40.064L77.276 26.496L76.508 3.2L78.364 1.92C78.8333 2.00533 79.4733 2.26133 80.284 2.688C81.1373 3.11467 81.9693 3.66933 82.78 4.352C83.5907 4.992 84.188 5.73866 84.572 6.592L83.996 27.328C83.9533 29.9307 83.9747 32.4693 84.06 34.944C84.1453 37.376 84.38 39.4667 84.764 41.216L98.908 38.528L100.764 26.496L99.996 3.2L101.852 1.92Z" fill="#CCD3D3"/>
<path d="M253.917 11.904C254.386 13.3973 255.304 14.784 256.669 16.064C258.034 17.344 259.634 18.624 261.469 19.904C263.346 21.1413 265.266 22.4853 267.229 23.936C269.234 25.3867 271.112 27.0507 272.861 28.928C274.653 30.8053 276.104 33.0027 277.213 35.52C276.957 37.184 276.338 38.8693 275.357 40.576C274.376 42.24 273.202 43.7547 271.837 45.12C270.472 46.4853 269.064 47.552 267.613 48.32C266.077 48.576 264.306 48.7467 262.301 48.832C260.296 48.96 258.205 48.9173 256.029 48.704C253.896 48.4907 251.826 48.064 249.821 47.424C249.224 46.9547 248.52 46.2507 247.709 45.312C246.898 44.3733 246.194 43.4987 245.597 42.688L246.621 32.832C247.432 32.576 248.37 32.4053 249.437 32.32C250.546 32.2347 251.528 32.32 252.381 32.576L252.957 40.896C254.664 41.152 256.52 41.2373 258.525 41.152C260.573 41.0667 262.578 40.832 264.541 40.448C266.546 40.0213 268.274 39.424 269.725 38.656C268.872 36.9493 267.656 35.392 266.077 33.984C264.498 32.5333 262.749 31.1467 260.829 29.824C258.952 28.4587 257.074 27.072 255.197 25.664C253.32 24.256 251.613 22.7627 250.077 21.184C248.584 19.6053 247.453 17.8347 246.685 15.872C246.984 14.208 247.496 12.5653 248.221 10.944C248.989 9.28 249.864 7.78666 250.845 6.464C251.869 5.09866 252.872 4.07466 253.853 3.392C260.04 1.64266 266.333 1.408 272.733 2.688C273.16 2.944 273.586 3.392 274.013 4.032C274.44 4.62933 274.845 5.26933 275.229 5.952C275.656 6.63467 275.997 7.168 276.253 7.552L275.293 16.256C274.482 16.5547 273.565 16.704 272.541 16.704C271.56 16.704 270.578 16.5973 269.597 16.384L269.021 9.472C267.57 9.344 265.949 9.344 264.157 9.472C262.365 9.55733 260.573 9.792 258.781 10.176C256.989 10.56 255.368 11.136 253.917 11.904Z" fill="#E5EDED"/>
<path d="M440.167 11.904C440.636 13.3973 441.554 14.784 442.919 16.064C444.284 17.344 445.884 18.624 447.719 19.904C449.596 21.1413 451.516 22.4853 453.479 23.936C455.484 25.3867 457.362 27.0507 459.111 28.928C460.903 30.8053 462.354 33.0027 463.463 35.52C463.207 37.184 462.588 38.8693 461.607 40.576C460.626 42.24 459.452 43.7547 458.087 45.12C456.722 46.4853 455.314 47.552 453.863 48.32C452.327 48.576 450.556 48.7467 448.551 48.832C446.546 48.96 444.455 48.9173 442.279 48.704C440.146 48.4907 438.076 48.064 436.071 47.424C435.474 46.9547 434.77 46.2507 433.959 45.312C433.148 44.3733 432.444 43.4987 431.847 42.688L432.871 32.832C433.682 32.576 434.62 32.4053 435.687 32.32C436.796 32.2347 437.778 32.32 438.631 32.576L439.207 40.896C440.914 41.152 442.77 41.2373 444.775 41.152C446.823 41.0667 448.828 40.832 450.791 40.448C452.796 40.0213 454.524 39.424 455.975 38.656C455.122 36.9493 453.906 35.392 452.327 33.984C450.748 32.5333 448.999 31.1467 447.079 29.824C445.202 28.4587 443.324 27.072 441.447 25.664C439.57 24.256 437.863 22.7627 436.327 21.184C434.834 19.6053 433.703 17.8347 432.935 15.872C433.234 14.208 433.746 12.5653 434.471 10.944C435.239 9.28 436.114 7.78666 437.095 6.464C438.119 5.09866 439.122 4.07466 440.103 3.392C446.29 1.64266 452.583 1.408 458.983 2.688C459.41 2.944 459.836 3.392 460.263 4.032C460.69 4.62933 461.095 5.26933 461.479 5.952C461.906 6.63467 462.247 7.168 462.503 7.552L461.543 16.256C460.732 16.5547 459.815 16.704 458.791 16.704C457.81 16.704 456.828 16.5973 455.847 16.384L455.271 9.472C453.82 9.344 452.199 9.344 450.407 9.472C448.615 9.55733 446.823 9.792 445.031 10.176C443.239 10.56 441.618 11.136 440.167 11.904Z" fill="#BFD4D4"/>
<path d="M32.408 38.656L40.4578 34.6311L37.624 28.9634L31.3327 29.7205L32.408 38.656ZM34.008 41.856L42.1637 45.662L44.0028 41.721L42.0578 37.8311L34.008 41.856ZM31.512 45.696L38.3287 51.5725L38.3778 51.5155L38.426 51.4577L31.512 45.696ZM28.184 49.024L27.4483 57.9939L31.1743 58.2995L34.0202 55.8752L28.184 49.024ZM7.896 47.36L8.6317 38.3901L5.73035 38.1522L3.23923 39.6584L7.896 47.36ZM5.144 49.024L2.11697 57.4997L6.14271 58.9374L9.80077 56.7256L5.144 49.024ZM0.984 46.144L-7.94425 45.0098L-8.41076 48.6821L-6.15846 51.6199L0.984 46.144ZM3.48 26.496L12.4082 27.6302L12.4988 26.9175L12.4751 26.1995L3.48 26.496ZM2.712 3.2L-2.39759 -4.20892L-6.44512 -1.41753L-6.28311 3.49654L2.712 3.2ZM4.568 1.92L6.17795 -6.93483L2.51948 -7.6L-0.541593 -5.48892L4.568 1.92ZM6.552 2.688L2.52706 10.7378L2.76364 10.8561L3.00675 10.9603L6.552 2.688ZM9.048 3.968L4.35494 11.6475L6.97236 13.2471L10.0218 12.9152L9.048 3.968ZM27.864 1.92L32.5348 -5.77309L29.9252 -7.3575L26.8902 -7.02716L27.864 1.92ZM31 4.416L24.4898 10.6303L24.5621 10.706L24.636 10.78L31 4.416ZM33.624 7.552L42.336 9.81066L43.3813 5.77883L40.9843 2.37256L33.624 7.552ZM32.728 11.008L32.494 20.005L39.6448 20.191L41.44 13.2667L32.728 11.008ZM10.584 10.432L10.818 1.43504L1.86659 1.2022L1.58835 10.1523L10.584 10.432ZM10.2 22.784L1.20435 22.5043L0.870327 33.2486L11.506 31.6887L10.2 22.784ZM24.6 20.672L28.8224 12.724L26.2151 11.3388L23.294 11.7673L24.6 20.672ZM27.992 22.912L22.1349 29.7453L22.2131 29.8124L22.2929 29.8776L27.992 22.912ZM30.36 25.728L39.0733 27.9814L39.9948 24.4183L38.1557 21.2305L30.36 25.728ZM29.4 29.44L29.1022 38.4351L36.3081 38.6737L38.1133 31.6934L29.4 29.44ZM10.072 28.8L10.3699 19.8049L1.072 19.4971L1.072 28.8H10.072ZM10.072 41.344H1.072V51.492L11.1473 50.2795L10.072 41.344ZM24.3582 42.6809L25.9582 45.8809L42.0578 37.8311L40.4578 34.6311L24.3582 42.6809ZM25.8524 38.05C25.6354 38.5149 25.2545 39.1465 24.598 39.9343L38.426 51.4577C39.9028 49.6855 41.1859 47.7571 42.1637 45.662L25.8524 38.05ZM24.6953 39.8195C23.9064 40.7347 23.122 41.5133 22.3478 42.1728L34.0202 55.8752C35.55 54.572 36.9843 53.132 38.3287 51.5725L24.6953 39.8195ZM28.9197 40.0541L8.6317 38.3901L7.1603 56.3299L27.4483 57.9939L28.9197 40.0541ZM3.23923 39.6584L0.487227 41.3224L9.80077 56.7256L12.5528 55.0616L3.23923 39.6584ZM8.17103 40.5483C7.92436 40.4602 7.85098 40.4022 7.88289 40.4243C7.89852 40.4351 7.93389 40.4614 7.9808 40.5058C8.02805 40.5505 8.07822 40.6052 8.12646 40.6681L-6.15846 51.6199C-3.94522 54.5067 -1.00865 56.3834 2.11697 57.4997L8.17103 40.5483ZM9.91225 47.2782L12.4082 27.6302L-5.44825 25.3618L-7.94425 45.0098L9.91225 47.2782ZM12.4751 26.1995L11.7071 2.90345L-6.28311 3.49654L-5.51511 26.7925L12.4751 26.1995ZM7.82159 10.6089L9.67759 9.32892L-0.541593 -5.48892L-2.39759 -4.20892L7.82159 10.6089ZM2.95805 10.7748C2.67324 10.723 2.46613 10.6655 2.35496 10.6319C2.23943 10.5971 2.17407 10.5718 2.16705 10.5691C2.15803 10.5656 2.18426 10.5755 2.2499 10.6051C2.31458 10.6343 2.40619 10.6774 2.52706 10.7378L10.5769 -5.36184C9.56243 -5.86909 7.95915 -6.61099 6.17795 -6.93483L2.95805 10.7748ZM3.00675 10.9603C3.5388 11.1883 3.98372 11.4207 4.35494 11.6475L13.7411 -3.71153C12.5763 -4.42334 11.3572 -5.04434 10.0973 -5.58431L3.00675 10.9603ZM10.0218 12.9152L28.8378 10.8672L26.8902 -7.02716L8.07416 -4.97916L10.0218 12.9152ZM23.1932 9.61308C23.7642 9.95975 24.1796 10.3053 24.4898 10.6303L37.5102 -1.79829C36.0284 -3.35064 34.3532 -4.66908 32.5348 -5.77309L23.1932 9.61308ZM24.636 10.78C25.1877 11.3316 25.7325 11.9766 26.2637 12.7314L40.9843 2.37256C39.8941 0.823436 38.6896 -0.622315 37.364 -1.94796L24.636 10.78ZM24.912 5.29334L24.016 8.74934L41.44 13.2667L42.336 9.81066L24.912 5.29334ZM32.962 2.01104L10.818 1.43504L10.35 19.429L32.494 20.005L32.962 2.01104ZM1.58835 10.1523L1.20435 22.5043L19.1957 23.0637L19.5797 10.7117L1.58835 10.1523ZM11.506 31.6887L25.906 29.5767L23.294 11.7673L8.89397 13.8793L11.506 31.6887ZM20.3776 28.62C21.3276 29.1247 21.8681 29.5166 22.1349 29.7453L33.8491 16.0787C32.3239 14.7714 30.6031 13.6699 28.8224 12.724L20.3776 28.62ZM22.2929 29.8776C22.3428 29.9185 22.4374 30.0055 22.5643 30.2255L38.1557 21.2305C37.0026 19.2318 35.5185 17.4415 33.6911 15.9464L22.2929 29.8776ZM21.6467 23.4746L20.6867 27.1866L38.1133 31.6934L39.0733 27.9814L21.6467 23.4746ZM29.6979 20.4449L10.3699 19.8049L9.77415 37.7951L29.1022 38.4351L29.6979 20.4449ZM1.072 28.8V41.344H19.072V28.8H1.072ZM11.1473 50.2795L33.4833 47.5915L31.3327 29.7205L8.99666 32.4085L11.1473 50.2795ZM63.462 2.24L67.8328 -5.62742L66.677 -6.26955L65.3853 -6.5521L63.462 2.24ZM66.662 4.672L60.298 11.036L60.3657 11.1037L60.4349 11.1699L66.662 4.672ZM71.078 10.176L80.0724 10.4926L80.157 8.08984L79.0321 5.96501L71.078 10.176ZM69.99 41.088L78.0398 45.1129L78.9156 43.3615L78.9844 41.4046L69.99 41.088ZM68.006 43.584L61.7917 37.0738L61.716 37.146L61.642 37.22L68.006 43.584ZM64.934 46.144L69.9263 53.6325L70.0207 53.5695L70.1134 53.5043L64.934 46.144ZM61.606 48.064L57.7114 39.9503L57.5816 40.0126L57.4538 40.079L61.606 48.064ZM58.982 49.024L57.7495 57.9392L58.9229 58.1014L60.0983 57.9545L58.982 49.024ZM45.094 47.104L46.3265 38.1888L43.1839 37.7543L40.4635 39.3866L45.094 47.104ZM41.894 49.024L38.867 57.4997L42.875 58.9311L46.5245 56.7414L41.894 49.024ZM37.734 46.144L28.8058 45.0098L28.3392 48.6821L30.5915 51.6199L37.734 46.144ZM40.23 26.496L49.1582 27.6302L49.2488 26.9175L49.2251 26.1995L40.23 26.496ZM39.462 3.2L34.3524 -4.20892L30.3049 -1.41753L30.4669 3.49654L39.462 3.2ZM41.318 1.92L43.083 -6.90523L39.3458 -7.65266L36.2084 -5.48892L41.318 1.92ZM43.046 2.56L39.2138 10.7034L39.4947 10.8355L39.784 10.948L43.046 2.56ZM45.286 3.648L40.7228 11.4054L40.8183 11.4616L40.9152 11.5154L45.286 3.648ZM47.142 4.864L41.4429 11.8296L46.002 15.5598L51.2449 12.8744L47.142 4.864ZM52.774 2.816L50.723 -5.9472L50.723 -5.9472L52.774 2.816ZM58.598 1.984L59.0067 10.9747L59.1085 10.9701L59.2102 10.9632L58.598 1.984ZM46.822 41.472H37.822V51.5903L47.8713 50.4106L46.822 41.472ZM61.542 39.744L62.5913 48.6826L68.9263 47.9389L70.3234 41.7153L61.542 39.744ZM62.694 32.576L53.7657 31.4422L53.7568 31.5121L53.749 31.5821L62.694 32.576ZM63.334 24.32L54.3433 23.9113L54.3402 23.9793L54.3381 24.0474L63.334 24.32ZM63.27 16.192L54.2893 16.7809L54.2893 16.7809L63.27 16.192ZM62.31 9.472L71.0413 7.28918L69.5615 1.37013L63.5153 0.553064L62.31 9.472ZM57.19 9.408L57.8312 18.3851L57.9275 18.3782L58.0236 18.3693L57.19 9.408ZM51.878 10.24L53.8536 19.0205L53.9323 19.0028L54.0106 18.9837L51.878 10.24ZM47.334 11.776L43.414 3.67456L38.5178 6.04365L38.3389 11.4799L47.334 11.776ZM46.822 27.328L37.8269 27.0319L37.822 27.1799V27.328H46.822ZM59.0912 10.1074C59.4743 10.3203 59.8766 10.6145 60.298 11.036L73.026 -1.69196C71.4847 -3.23318 69.7537 -4.56026 67.8328 -5.62742L59.0912 10.1074ZM60.4349 11.1699C61.1912 11.8947 61.7914 12.5609 62.2625 13.1628L76.4375 2.06922C75.3726 0.708471 74.1808 -0.588055 72.8891 -1.8259L60.4349 11.1699ZM62.2625 13.1628C62.8524 13.9166 63.0811 14.3062 63.1239 14.387L79.0321 5.96501C78.3069 4.59512 77.3836 3.27811 76.4375 2.06922L62.2625 13.1628ZM62.0836 9.85942L60.9956 40.7714L78.9844 41.4046L80.0724 10.4926L62.0836 9.85942ZM61.9402 37.0631C62.0147 36.914 62.0781 36.8107 62.1155 36.7535C62.1531 36.696 62.1714 36.6742 62.1606 36.6878C62.15 36.7012 62.1167 36.7418 62.0542 36.8093C61.9918 36.8766 61.9058 36.9649 61.7917 37.0738L74.2203 50.0942C75.5653 48.8103 77.0184 47.1559 78.0398 45.1129L61.9402 37.0631ZM61.642 37.22C61.1494 37.7127 60.53 38.2381 59.7546 38.7837L70.1134 53.5043C71.642 52.4286 73.0706 51.2473 74.37 49.948L61.642 37.22ZM59.9417 38.6555C59.0831 39.2279 58.3405 39.6483 57.7114 39.9503L65.5006 56.1777C67.0048 55.4557 68.4809 54.5961 69.9263 53.6325L59.9417 38.6555ZM57.4538 40.079C57.318 40.1497 57.2158 40.1985 57.145 40.2304C57.0734 40.2626 57.0455 40.2724 57.0578 40.2679C57.0688 40.2638 57.1393 40.2384 57.2631 40.2062C57.3851 40.1744 57.59 40.128 57.8657 40.0935L60.0983 57.9545C62.3508 57.6729 64.343 56.7849 65.7582 56.049L57.4538 40.079ZM60.2145 40.1088L46.3265 38.1888L43.8615 56.0192L57.7495 57.9392L60.2145 40.1088ZM40.4635 39.3866L37.2635 41.3066L46.5245 56.7414L49.7245 54.8214L40.4635 39.3866ZM44.921 40.5483C44.6744 40.4602 44.601 40.4022 44.6329 40.4243C44.6485 40.4351 44.6839 40.4614 44.7308 40.5058C44.778 40.5505 44.8282 40.6052 44.8765 40.6681L30.5915 51.6199C32.8048 54.5067 35.7413 56.3834 38.867 57.4997L44.921 40.5483ZM46.6622 47.2782L49.1582 27.6302L31.3018 25.3618L28.8058 45.0098L46.6622 47.2782ZM49.2251 26.1995L48.4571 2.90345L30.4669 3.49654L31.2349 26.7925L49.2251 26.1995ZM44.5716 10.6089L46.4276 9.32892L36.2084 -5.48892L34.3524 -4.20892L44.5716 10.6089ZM39.553 10.7452C39.3411 10.7028 39.1853 10.6599 39.0967 10.6335C39.0057 10.6064 38.953 10.587 38.9442 10.5837C38.9333 10.5797 39.017 10.6107 39.2138 10.7034L46.8782 -5.58337C45.947 -6.02156 44.5881 -6.60422 43.083 -6.90523L39.553 10.7452ZM39.784 10.948C40.0926 11.0681 40.4048 11.2183 40.7228 11.4054L49.8492 -4.10941C48.7166 -4.77565 47.5354 -5.35073 46.308 -5.82804L39.784 10.948ZM40.9152 11.5154C41.1423 11.6416 41.2975 11.7371 41.3938 11.8001C41.493 11.8651 41.5 11.8764 41.4429 11.8296L52.8411 -2.10161C51.8178 -2.93892 50.7049 -3.63714 49.6568 -4.21942L40.9152 11.5154ZM51.2449 12.8744C52.313 12.3273 53.4976 11.8899 54.825 11.5792L50.723 -5.9472C48.0397 -5.31919 45.4697 -4.39133 43.0391 -3.14639L51.2449 12.8744ZM54.825 11.5792C56.3418 11.2242 57.7324 11.0326 59.0067 10.9747L58.1893 -7.00672C55.7089 -6.89397 53.2168 -6.53085 50.723 -5.9472L54.825 11.5792ZM59.2102 10.9632C60.5112 10.8744 61.2364 10.966 61.5387 11.0321L65.3853 -6.5521C62.957 -7.0833 60.4394 -7.16245 57.9858 -6.99516L59.2102 10.9632ZM47.8713 50.4106L62.5913 48.6826L60.4927 30.8054L45.7727 32.5334L47.8713 50.4106ZM70.3234 41.7153C70.881 39.2315 71.3128 36.5057 71.639 33.5699L53.749 31.5821C53.4779 34.0223 53.1416 36.0752 52.7606 37.7727L70.3234 41.7153ZM71.6223 33.7098C72.0013 30.7249 72.2362 27.6852 72.3299 24.5926L54.3381 24.0474C54.2612 26.5868 54.0693 29.0511 53.7657 31.4422L71.6223 33.7098ZM72.3247 24.7287C72.4666 21.6066 72.4448 18.5632 72.2507 15.6031L54.2893 16.7809C54.4365 19.0261 54.4574 21.4014 54.3433 23.9113L72.3247 24.7287ZM72.2507 15.6031C72.0561 12.6349 71.6774 9.83357 71.0413 7.28918L53.5787 11.6548C53.8813 12.8651 54.1426 14.5438 54.2893 16.7809L72.2507 15.6031ZM63.5153 0.553064C61.1652 0.235493 58.7669 0.222456 56.3564 0.446686L58.0236 18.3693C59.2825 18.2522 60.2974 18.2818 61.1047 18.3909L63.5153 0.553064ZM56.5488 0.430869C54.2529 0.594865 51.9833 0.950477 49.7454 1.49631L54.0106 18.9837C55.2713 18.6762 56.5432 18.4771 57.8312 18.3851L56.5488 0.430869ZM49.9024 1.45951C47.6469 1.96699 45.4608 2.68414 43.414 3.67456L51.254 19.8774C51.8525 19.5879 52.6957 19.281 53.8536 19.0205L49.9024 1.45951ZM38.3389 11.4799L37.8269 27.0319L55.8171 27.6241L56.3291 12.0721L38.3389 11.4799ZM37.822 27.328V41.472H55.822V27.328H37.822ZM101.852 1.92L103.462 -6.93483L99.8035 -7.6L96.7424 -5.48892L101.852 1.92ZM106.14 3.904L101.447 11.5835L101.538 11.6393L101.631 11.6928L106.14 3.904ZM107.932 5.248L116.927 5.54132L117.045 1.92026L114.622 -0.77269L107.932 5.248ZM106.78 40.576L114.497 45.2065L115.699 43.2037L115.775 40.8693L106.78 40.576ZM103.516 44.608L97.152 38.244L97.1031 38.293L97.0549 38.3427L103.516 44.608ZM99.676 48V57H102.56L104.907 55.3236L99.676 48ZM86.492 48L85.3757 56.9305L85.9317 57H86.492V48ZM83.868 47.104L79.7158 55.089L79.8436 55.1554L79.9734 55.2177L83.868 47.104ZM80.54 45.12L75.3606 52.4803L75.4533 52.5455L75.5477 52.6085L80.54 45.12ZM77.404 42.56L71.04 48.924L71.114 48.998L71.1897 49.0702L77.404 42.56ZM75.484 40.064L66.5615 38.8856L66.2002 41.621L67.4342 44.0889L75.484 40.064ZM77.276 26.496L86.1985 27.6744L86.2955 26.9399L86.2711 26.1995L77.276 26.496ZM76.508 3.2L71.3984 -4.20892L67.3509 -1.41753L67.5129 3.49654L76.508 3.2ZM78.364 1.92L79.9739 -6.93483L76.3155 -7.6L73.2544 -5.48892L78.364 1.92ZM80.284 2.688L76.0923 10.6523L76.1752 10.6959L76.2591 10.7378L80.284 2.688ZM82.78 4.352L76.9828 11.2362L77.0916 11.3278L77.2032 11.4159L82.78 4.352ZM84.572 6.592L93.5685 6.8419L93.6258 4.77986L92.7793 2.89872L84.572 6.592ZM83.996 27.328L74.9995 27.0781L74.998 27.1293L74.9972 27.1805L83.996 27.328ZM84.06 34.944L75.0653 35.2542L75.0655 35.2596L84.06 34.944ZM84.764 41.216L75.9733 43.1457L77.8492 51.6912L86.4443 50.0577L84.764 41.216ZM98.908 38.528L100.588 47.3697L106.834 46.1829L107.803 39.9001L98.908 38.528ZM100.764 26.496L109.659 27.8681L109.787 27.0384L109.759 26.1995L100.764 26.496ZM99.996 3.2L94.8864 -4.20892L90.8389 -1.41753L91.0009 3.49654L99.996 3.2ZM100.242 10.7748C100.007 10.7321 99.8359 10.6866 99.7416 10.6594C99.6443 10.6314 99.5902 10.6115 99.5857 10.6099C99.5798 10.6077 99.6052 10.6169 99.6654 10.6426C99.7249 10.668 99.8089 10.7054 99.9192 10.7576L107.625 -5.50964C106.61 -5.99043 105.114 -6.63445 103.462 -6.93483L100.242 10.7748ZM99.9192 10.7576C100.441 11.0048 100.95 11.2798 101.447 11.5835L110.833 -3.77553C109.794 -4.41044 108.724 -4.98879 107.625 -5.50964L99.9192 10.7576ZM101.631 11.6928C101.801 11.7917 101.843 11.8274 101.796 11.792C101.769 11.7719 101.706 11.7228 101.616 11.6426C101.526 11.5631 101.396 11.4395 101.242 11.2687L114.622 -0.77269C113.337 -2.20015 111.829 -3.20202 110.649 -3.88484L101.631 11.6928ZM98.9368 4.95467L97.7848 40.2827L115.775 40.8693L116.927 5.54132L98.9368 4.95467ZM99.0626 35.9455C98.7749 36.425 98.2011 37.195 97.152 38.244L109.88 50.972C111.647 49.205 113.249 47.287 114.497 45.2065L99.0626 35.9455ZM97.0549 38.3427C95.9498 39.4823 95.0801 40.2227 94.4449 40.6764L104.907 55.3236C106.661 54.0707 108.351 52.5497 109.977 50.8733L97.0549 38.3427ZM99.676 39H86.492V57H99.676V39ZM87.6083 39.0695C87.8388 39.0983 88.0057 39.1348 88.0986 39.1577C88.1931 39.181 88.2395 39.1973 88.2323 39.1949C88.2261 39.1927 88.1831 39.1777 88.1 39.143C88.0176 39.1086 87.9057 39.059 87.7626 38.9903L79.9734 55.2177C81.3811 55.8934 83.2777 56.6683 85.3757 56.9305L87.6083 39.0695ZM88.0202 39.119C87.2817 38.735 86.453 38.2454 85.5323 37.6315L75.5477 52.6085C76.931 53.5306 78.321 54.3636 79.7158 55.089L88.0202 39.119ZM85.7194 37.7597C84.9023 37.1847 84.2075 36.6122 83.6183 36.0498L71.1897 49.0702C72.4778 50.2998 73.8737 51.434 75.3606 52.4803L85.7194 37.7597ZM83.768 36.196C83.5409 35.969 83.4257 35.8287 83.3856 35.7766C83.3674 35.753 83.3751 35.7609 83.4004 35.8005C83.4257 35.8399 83.4741 35.9196 83.5338 36.0391L67.4342 44.0889C68.4039 46.0285 69.7537 47.6376 71.04 48.924L83.768 36.196ZM84.4065 41.2424L86.1985 27.6744L68.3535 25.3176L66.5615 38.8856L84.4065 41.2424ZM86.2711 26.1995L85.5031 2.90345L67.5129 3.49654L68.2809 26.7925L86.2711 26.1995ZM81.6176 10.6089L83.4736 9.32892L73.2544 -5.48892L71.3984 -4.20892L81.6176 10.6089ZM76.7541 10.7748C76.4558 10.7206 76.2329 10.6585 76.1012 10.618C75.966 10.5764 75.881 10.5433 75.8535 10.5323C75.8076 10.5139 75.8793 10.5402 76.0923 10.6523L84.4757 -5.27626C83.4557 -5.81312 81.8305 -6.59729 79.9739 -6.93483L76.7541 10.7748ZM76.2591 10.7378C76.4122 10.8144 76.6557 10.9608 76.9828 11.2362L88.5772 -2.53221C87.2829 -3.62214 85.8625 -4.58506 84.3089 -5.36185L76.2591 10.7378ZM77.2032 11.4159C76.9988 11.2546 76.6337 10.883 76.3647 10.2853L92.7793 2.89872C91.7423 0.594329 90.1825 -1.2706 88.3568 -2.71195L77.2032 11.4159ZM75.5755 6.3421L74.9995 27.0781L92.9925 27.5779L93.5685 6.8419L75.5755 6.3421ZM74.9972 27.1805C74.9522 29.928 74.9745 32.6195 75.0653 35.2542L93.0547 34.6338C92.9748 32.3192 92.9545 29.9333 92.9948 27.4755L74.9972 27.1805ZM75.0655 35.2596C75.1636 38.0558 75.4398 40.7155 75.9733 43.1457L93.5547 39.2863C93.3202 38.2179 93.127 36.6962 93.0545 34.6284L75.0655 35.2596ZM86.4443 50.0577L100.588 47.3697L97.2277 29.6863L83.0837 32.3743L86.4443 50.0577ZM107.803 39.9001L109.659 27.8681L91.8692 25.1239L90.0132 37.1559L107.803 39.9001ZM109.759 26.1995L108.991 2.90345L91.0009 3.49654L91.7689 26.7925L109.759 26.1995ZM105.106 10.6089L106.962 9.32891L96.7424 -5.48892L94.8864 -4.20892L105.106 10.6089ZM131.227 22.144L139.703 19.117L137.569 13.144H131.227V22.144ZM131.739 24.384L122.829 25.6568L122.859 25.8632L122.898 26.068L131.739 24.384ZM132.123 27.008L139.578 32.0508L141.402 29.3532L141.078 26.1125L132.123 27.008ZM130.651 29.184V38.184H135.429L138.106 34.2268L130.651 29.184ZM113.691 29.184L105.037 31.6565L106.902 38.184H113.691V29.184ZM112.795 24.32L105.34 19.2772L103.563 21.9054L103.826 25.0674L112.795 24.32ZM114.267 22.144V13.144H109.489L106.812 17.1012L114.267 22.144ZM122.751 25.171C122.717 25.0753 122.719 25.0619 122.741 25.1574C122.762 25.2498 122.794 25.412 122.829 25.6568L140.649 23.1112C140.468 21.8479 140.185 20.4669 139.703 19.117L122.751 25.171ZM122.898 26.068C123.022 26.7194 123.11 27.3306 123.168 27.9035L141.078 26.1125C140.965 24.9787 140.797 23.8406 140.58 22.7L122.898 26.068ZM124.668 21.9652L123.196 24.1412L138.106 34.2268L139.578 32.0508L124.668 21.9652ZM130.651 20.184H113.691V38.184H130.651V20.184ZM122.345 26.7115C122.248 26.3727 122.126 25.8844 121.986 25.2179L104.372 28.9261C104.573 29.8809 104.793 30.8006 105.037 31.6565L122.345 26.7115ZM121.986 25.2179C121.908 24.8468 121.825 24.309 121.764 23.5726L103.826 25.0674C103.935 26.379 104.109 27.6759 104.372 28.9261L121.986 25.2179ZM120.25 29.3628L121.722 27.1868L106.812 17.1012L105.34 19.2772L120.25 29.3628ZM114.267 31.144H131.227V13.144H114.267V31.144ZM145.263 41.28L136.507 43.3646L138.52 51.8178L147.039 50.103L145.263 41.28ZM164.975 37.312L173.056 33.3506L170.001 27.1196L163.198 28.489L164.975 37.312ZM166.575 40.576L174.572 44.7038L176.649 40.6802L174.656 36.6146L166.575 40.576ZM163.695 44.608L170.267 50.7564L170.316 50.7044L170.363 50.6517L163.695 44.608ZM160.111 48V57H163.313L165.796 54.9771L160.111 48ZM147.567 48L146.45 56.9305L147.006 57H147.567V48ZM144.815 46.976L140.548 54.9002L140.609 54.9335L140.672 54.9658L144.815 46.976ZM141.359 44.8L135.959 52L136.042 52.0628L136.127 52.1236L141.359 44.8ZM138.223 42.048L131.576 48.1164L131.643 48.1901L131.712 48.2623L138.223 42.048ZM136.495 39.424L127.511 38.8826L127.406 40.6194L127.956 42.2701L136.495 39.424ZM138.223 10.752L130.465 6.18882L129.369 8.0524L129.239 10.2106L138.223 10.752ZM140.015 8.192L132.958 2.60567L132.942 2.6254L132.927 2.64522L140.015 8.192ZM142.639 5.248L149.002 11.612L149.073 11.5413L149.142 11.469L142.639 5.248ZM145.199 2.816L143.503 -6.02292L141.222 -5.58533L139.437 -4.098L145.199 2.816ZM163.951 3.328L170.075 -3.26716L168.545 -4.68706L166.547 -5.28918L163.951 3.328ZM165.743 5.504L158.254 10.4963L158.311 10.5814L158.369 10.6652L165.743 5.504ZM167.151 7.808L176.11 8.66128L176.355 6.09174L175.2 3.78308L167.151 7.808ZM166.255 17.216L169.25 25.7029L174.669 23.7902L175.214 18.0693L166.255 17.216ZM163.375 17.664V26.664H163.535L163.696 26.6583L163.375 17.664ZM160.303 17.408L151.358 18.4097L152.09 24.9438L158.537 26.2332L160.303 17.408ZM159.407 9.408L168.351 8.40626L167.526 1.04085L160.139 0.437836L159.407 9.408ZM152.943 9.344L153.295 18.3371L153.378 18.3338L153.461 18.3291L152.943 9.344ZM146.735 10.368L144.114 1.75794L139.563 3.14301L138.144 7.68352L146.735 10.368ZM145.135 17.6L136.239 16.2315L136.229 16.2985L136.22 16.3656L145.135 17.6ZM144.367 26.24L153.358 26.6309L153.358 26.6254L144.367 26.24ZM144.367 34.624L135.377 35.059L135.381 35.1312L135.385 35.2034L144.367 34.624ZM147.039 50.103L166.751 46.135L163.198 28.489L143.486 32.457L147.039 50.103ZM156.893 41.2734L158.493 44.5374L174.656 36.6146L173.056 33.3506L156.893 41.2734ZM158.577 36.4482C158.325 36.9359 157.858 37.6462 157.026 38.5643L170.363 50.6517C172.006 48.8392 173.458 46.8614 174.572 44.7038L158.577 36.4482ZM157.122 38.4596C156.104 39.5478 155.204 40.3883 154.425 41.0229L165.796 54.9771C167.321 53.7343 168.81 52.3135 170.267 50.7564L157.122 38.4596ZM160.111 39H147.567V57H160.111V39ZM148.683 39.0695C148.99 39.1078 149.211 39.1603 149.329 39.1919C149.451 39.2243 149.512 39.2477 149.505 39.245C149.5 39.243 149.45 39.2242 149.352 39.1798C149.256 39.1359 149.125 39.073 148.957 38.9862L140.672 54.9658C142.084 55.6983 144.149 56.6429 146.45 56.9305L148.683 39.0695ZM149.081 39.0518C148.355 38.6606 147.525 38.1444 146.59 37.4764L136.127 52.1236C137.581 53.1622 139.055 54.0967 140.548 54.9002L149.081 39.0518ZM146.759 37.6C145.903 36.958 145.24 36.365 144.733 35.8337L131.712 48.2623C132.997 49.6083 134.425 50.85 135.959 52L146.759 37.6ZM144.869 35.9796C144.659 35.7502 144.605 35.6598 144.635 35.7061C144.653 35.7341 144.706 35.8169 144.775 35.9534C144.844 36.0895 144.94 36.2989 145.033 36.5779L127.956 42.2701C128.786 44.759 130.308 46.728 131.576 48.1164L144.869 35.9796ZM145.478 39.9654L147.206 11.2934L129.239 10.2106L127.511 38.8826L145.478 39.9654ZM145.98 15.3152C146.135 15.0523 146.474 14.5408 147.102 13.7388L132.927 2.64522C132.019 3.80589 131.164 5.001 130.465 6.18882L145.98 15.3152ZM147.071 13.7783C147.662 13.0311 148.305 12.309 149.002 11.612L136.275 -1.11596C135.094 0.0643116 133.988 1.30489 132.958 2.60567L147.071 13.7783ZM149.142 11.469C149.924 10.6522 150.526 10.0921 150.96 9.72999L139.437 -4.098C138.335 -3.18011 137.231 -2.11889 136.135 -0.973006L149.142 11.469ZM146.894 11.6549C149.46 11.1628 152.007 10.92 154.543 10.92V-7.08C150.849 -7.08 147.167 -6.72544 143.503 -6.02292L146.894 11.6549ZM154.543 10.92C156.794 10.92 159.055 11.2526 161.354 11.9452L166.547 -5.28918C162.616 -6.47393 158.606 -7.08 154.543 -7.08V10.92ZM157.826 9.92316C157.791 9.89044 157.818 9.91038 157.899 10.0094C157.98 10.1075 158.1 10.2647 158.254 10.4963L173.231 0.511701C172.36 -0.795064 171.322 -2.10878 170.075 -3.26716L157.826 9.92316ZM158.369 10.6652C158.798 11.2775 159.013 11.6579 159.101 11.8329L175.2 3.78308C174.605 2.59273 173.882 1.43717 173.116 0.342841L158.369 10.6652ZM158.191 6.95472L157.295 16.3627L175.214 18.0693L176.11 8.66128L158.191 6.95472ZM163.259 8.72909C163.404 8.678 163.508 8.6504 163.562 8.63752C163.616 8.6245 163.633 8.62287 163.607 8.62695C163.581 8.63095 163.523 8.63903 163.428 8.64752C163.333 8.65598 163.209 8.66418 163.053 8.66973L163.696 26.6583C165.356 26.599 167.325 26.3821 169.25 25.7029L163.259 8.72909ZM163.375 8.664C162.57 8.664 162.17 8.60331 162.068 8.58277L158.537 26.2332C160.141 26.554 161.789 26.664 163.375 26.664V8.664ZM169.247 16.4063L168.351 8.40626L150.462 10.4097L151.358 18.4097L169.247 16.4063ZM160.139 0.437836C157.608 0.231267 155.035 0.20831 152.424 0.358939L153.461 18.3291C155.287 18.2237 157.023 18.2434 158.674 18.3782L160.139 0.437836ZM152.59 0.35091C149.692 0.464558 146.857 0.923135 144.114 1.75794L149.355 18.9781C150.537 18.6182 151.841 18.3941 153.295 18.3371L152.59 0.35091ZM138.144 7.68352C137.336 10.2695 136.715 13.1398 136.239 16.2315L154.03 18.9685C154.408 16.5135 154.853 14.5625 155.325 13.0525L138.144 7.68352ZM136.22 16.3656C135.794 19.4388 135.514 22.6029 135.375 25.8546L153.358 26.6254C153.475 23.9038 153.707 21.3079 154.049 18.8344L136.22 16.3656ZM135.375 25.8491C135.236 29.0381 135.234 32.1099 135.377 35.059L153.356 34.189C153.243 31.8474 153.241 29.3299 153.358 26.6309L135.375 25.8491ZM135.385 35.2034C135.576 38.1559 135.924 40.9153 136.507 43.3646L154.018 39.1954C153.748 38.0607 153.499 36.3828 153.348 34.0446L135.385 35.2034ZM195.807 29.056L190.141 22.0636L184.371 26.7389L187.866 33.2913L195.807 29.056ZM205.023 46.336L210.88 53.1693L216.362 48.4709L212.964 42.1007L205.023 46.336ZM201.887 49.024L200.305 57.8838L204.505 58.6338L207.744 55.8573L201.887 49.024ZM197.855 47.616L193.923 55.7116L193.923 55.7116L197.855 47.616ZM193.951 44.864L185.27 47.2383L185.899 49.5404L187.587 51.228L193.951 44.864ZM189.855 29.888L198.536 27.5137L196.659 20.6514L189.549 20.8932L189.855 29.888ZM180.447 30.208L180.141 21.2132L171.447 21.5089V30.208H180.447ZM180.447 46.016L185.136 53.698L189.447 51.0666V46.016H180.447ZM175.519 49.024L172.492 57.4997L176.54 58.9452L180.208 56.706L175.519 49.024ZM171.359 46.144L162.431 45.0098L161.964 48.6821L164.217 51.6199L171.359 46.144ZM173.855 26.496L182.783 27.6302L182.874 26.9175L182.85 26.1995L173.855 26.496ZM173.087 3.2L167.977 -4.20892L163.93 -1.41753L164.092 3.49654L173.087 3.2ZM174.943 1.92L176.216 -6.98955L172.731 -7.48735L169.833 -5.48892L174.943 1.92ZM177.503 2.88L173.478 10.9298L173.538 10.9599L173.599 10.989L177.503 2.88ZM180.383 4.608L174.858 11.7122L179.286 15.1567L184.329 12.6969L180.383 4.608ZM185.887 2.688L183.975 -6.10659L183.955 -6.10218L183.935 -6.09768L185.887 2.688ZM191.519 1.92L191.101 -7.07029L191.091 -7.06982L191.519 1.92ZM196.319 2.24L200.69 -5.62742L199.534 -6.26955L198.242 -6.5521L196.319 2.24ZM199.583 4.672L205.81 -1.8259L205.81 -1.8259L199.583 4.672ZM202.271 7.68L195.071 13.08L195.198 13.249L195.332 13.4119L202.271 7.68ZM204.063 10.24L213.044 10.8238L213.209 8.28101L212.017 6.02901L204.063 10.24ZM203.231 23.04L208.897 30.0324L211.957 27.5532L212.212 23.6238L203.231 23.04ZM195.551 9.344L204.435 7.90335L203.395 1.49291L196.984 0.458828L195.551 9.344ZM191.007 9.152L191.232 18.1492L191.344 18.1464L191.456 18.1408L191.007 9.152ZM185.823 9.728L184.099 0.89458L184.079 0.898627L184.058 0.902772L185.823 9.728ZM180.959 11.264L177.304 3.0397L172.129 5.33943L171.963 10.9994L180.959 11.264ZM180.575 24.32L171.579 24.0554L171.241 35.5278L182.463 33.1197L180.575 24.32ZM195.487 21.12L197.375 29.9197L203.657 28.5716L204.423 22.1923L195.487 21.12ZM195.871 14.848L186.873 14.6644L186.871 14.7562V14.848H195.871ZM187.866 33.2913L197.082 50.5713L212.964 42.1007L203.748 24.8207L187.866 33.2913ZM199.166 39.5027L196.03 42.1907L207.744 55.8573L210.88 53.1693L199.166 39.5027ZM203.469 40.1642C203.326 40.1386 202.789 40.007 201.787 39.5204L193.923 55.7116C195.908 56.6757 198.059 57.4827 200.305 57.8838L203.469 40.1642ZM201.787 39.5204C201.142 39.2072 200.675 38.8605 200.315 38.5L187.587 51.228C189.445 53.0862 191.581 54.5741 193.923 55.7116L201.787 39.5204ZM202.632 42.4897L198.536 27.5137L181.174 32.2623L185.27 47.2383L202.632 42.4897ZM189.549 20.8932L180.141 21.2132L180.753 39.2028L190.161 38.8828L189.549 20.8932ZM171.447 30.208V46.016H189.447V30.208H171.447ZM175.758 38.334L170.83 41.342L180.208 56.706L185.136 53.698L175.758 38.334ZM178.546 40.5483C178.299 40.4602 178.226 40.4022 178.258 40.4243C178.274 40.4351 178.309 40.4614 178.356 40.5058C178.403 40.5505 178.453 40.6052 178.501 40.6681L164.217 51.6199C166.43 54.5067 169.366 56.3834 172.492 57.4997L178.546 40.5483ZM180.287 47.2782L182.783 27.6302L164.927 25.3618L162.431 45.0098L180.287 47.2782ZM182.85 26.1995L182.082 2.90345L164.092 3.49654L164.86 26.7925L182.85 26.1995ZM178.197 10.6089L180.053 9.32892L169.833 -5.48892L167.977 -4.20892L178.197 10.6089ZM173.67 10.8295C173.506 10.806 173.369 10.7798 173.264 10.7569C173.159 10.734 173.076 10.7124 173.017 10.696C172.904 10.6643 172.852 10.6438 172.871 10.651C172.888 10.6572 172.947 10.6805 173.055 10.7286C173.162 10.7762 173.302 10.8419 173.478 10.9298L181.528 -5.16985C180.267 -5.80031 178.328 -6.6878 176.216 -6.98955L173.67 10.8295ZM173.599 10.989C174.344 11.348 174.721 11.6061 174.858 11.7122L185.908 -2.49617C184.509 -3.58481 182.966 -4.47863 181.407 -5.22902L173.599 10.989ZM184.329 12.6969C185.437 12.1565 186.602 11.7487 187.839 11.4737L183.935 -6.09768C181.332 -5.51942 178.828 -4.64719 176.437 -3.48092L184.329 12.6969ZM187.799 11.4826C189.33 11.1497 190.709 10.9688 191.947 10.9098L191.091 -7.06982C188.745 -6.95809 186.369 -6.62703 183.975 -6.10659L187.799 11.4826ZM191.937 10.9103C193.217 10.8508 193.996 10.9446 194.396 11.0321L198.242 -6.5521C195.912 -7.06196 193.491 -7.18143 191.101 -7.07028L191.937 10.9103ZM191.948 10.1074C192.376 10.3451 192.847 10.6824 193.356 11.1699L205.81 -1.8259C204.271 -3.30103 202.566 -4.58506 200.69 -5.62742L191.948 10.1074ZM193.356 11.1699C194.064 11.8481 194.626 12.4872 195.071 13.08L209.471 2.28C208.38 0.824839 207.15 -0.541487 205.81 -1.8259L193.356 11.1699ZM195.332 13.4119C195.617 13.7569 195.818 14.0237 195.954 14.2172C196.093 14.4161 196.13 14.4902 196.109 14.451L212.017 6.02901C211.236 4.55383 210.222 3.17337 209.21 1.94805L195.332 13.4119ZM195.082 9.65623L194.25 22.4562L212.212 23.6238L213.044 10.8238L195.082 9.65623ZM197.565 16.0476L190.141 22.0636L201.473 36.0484L208.897 30.0324L197.565 16.0476ZM196.984 0.458828C194.897 0.122136 192.731 0.0545699 190.558 0.163225L191.456 18.1408C192.697 18.0788 193.56 18.1392 194.118 18.2292L196.984 0.458828ZM190.782 0.154808C188.551 0.210597 186.321 0.461059 184.099 0.89458L187.547 18.5614C188.823 18.3123 190.05 18.1787 191.232 18.1492L190.782 0.154808ZM184.058 0.902772C181.724 1.36955 179.467 2.07831 177.304 3.0397L184.614 19.4883C185.523 19.0844 186.509 18.7691 187.588 18.5532L184.058 0.902772ZM171.963 10.9994L171.579 24.0554L189.571 24.5846L189.955 11.5286L171.963 10.9994ZM182.463 33.1197L197.375 29.9197L193.599 12.3203L178.687 15.5203L182.463 33.1197ZM204.423 22.1923C204.72 19.7205 204.871 17.2714 204.871 14.848H186.871C186.871 16.5206 186.766 18.2529 186.551 20.0477L204.423 22.1923ZM204.869 15.0316C204.92 12.5527 204.8 10.1533 204.435 7.90335L186.667 10.7846C186.814 11.6921 186.908 12.9619 186.873 14.6644L204.869 15.0316ZM235.102 1.92L236.712 -6.93483L233.053 -7.6L229.992 -5.48892L235.102 1.92ZM239.39 3.904L234.697 11.5835L234.788 11.6393L234.881 11.6928L239.39 3.904ZM241.182 5.248L250.177 5.54132L250.295 1.92026L247.872 -0.77269L241.182 5.248ZM240.03 40.576L247.747 45.2065L248.949 43.2037L249.025 40.8693L240.03 40.576ZM236.766 44.608L230.402 38.244L230.353 38.293L230.305 38.3427L236.766 44.608ZM232.926 48V57H235.81L238.157 55.3236L232.926 48ZM219.742 48L218.626 56.9305L219.182 57H219.742V48ZM217.118 47.104L212.966 55.089L213.094 55.1554L213.223 55.2177L217.118 47.104ZM213.79 45.12L208.611 52.4803L208.703 52.5455L208.798 52.6085L213.79 45.12ZM210.654 42.56L204.29 48.924L204.364 48.998L204.44 49.0702L210.654 42.56ZM208.734 40.064L199.811 38.8856L199.45 41.621L200.684 44.0889L208.734 40.064ZM210.526 26.496L219.449 27.6744L219.546 26.9399L219.521 26.1995L210.526 26.496ZM209.758 3.2L204.648 -4.20892L200.601 -1.41753L200.763 3.49654L209.758 3.2ZM211.614 1.92L213.224 -6.93483L209.565 -7.6L206.504 -5.48892L211.614 1.92ZM213.534 2.688L209.342 10.6523L209.425 10.6959L209.509 10.7378L213.534 2.688ZM216.03 4.352L210.233 11.2362L210.342 11.3278L210.453 11.4159L216.03 4.352ZM217.822 6.592L226.819 6.8419L226.876 4.77986L226.029 2.89872L217.822 6.592ZM217.246 27.328L208.249 27.0781L208.248 27.1293L208.247 27.1805L217.246 27.328ZM217.31 34.944L208.315 35.2542L208.316 35.2596L217.31 34.944ZM218.014 41.216L209.223 43.1457L211.099 51.6912L219.694 50.0577L218.014 41.216ZM232.158 38.528L233.838 47.3697L240.084 46.1829L241.053 39.9001L232.158 38.528ZM234.014 26.496L242.909 27.8681L243.037 27.0384L243.009 26.1995L234.014 26.496ZM233.246 3.2L228.136 -4.20892L224.089 -1.41753L224.251 3.49654L233.246 3.2ZM233.492 10.7748C233.257 10.7321 233.086 10.6866 232.992 10.6594C232.894 10.6314 232.84 10.6115 232.836 10.6099C232.83 10.6077 232.855 10.6169 232.915 10.6426C232.975 10.668 233.059 10.7054 233.169 10.7576L240.875 -5.50964C239.86 -5.99043 238.364 -6.63445 236.712 -6.93483L233.492 10.7748ZM233.169 10.7576C233.691 11.0048 234.2 11.2798 234.697 11.5835L244.083 -3.77553C243.044 -4.41044 241.974 -4.98879 240.875 -5.50964L233.169 10.7576ZM234.881 11.6928C235.051 11.7917 235.093 11.8274 235.046 11.792C235.019 11.7719 234.956 11.7228 234.866 11.6426C234.776 11.5631 234.646 11.4395 234.492 11.2687L247.872 -0.77269C246.587 -2.20015 245.079 -3.20202 243.899 -3.88484L234.881 11.6928ZM232.187 4.95467L231.035 40.2827L249.025 40.8693L250.177 5.54132L232.187 4.95467ZM232.313 35.9455C232.025 36.425 231.451 37.195 230.402 38.244L243.13 50.972C244.897 49.205 246.499 47.287 247.747 45.2065L232.313 35.9455ZM230.305 38.3427C229.2 39.4823 228.33 40.2227 227.695 40.6764L238.157 55.3236C239.911 54.0707 241.601 52.5497 243.227 50.8733L230.305 38.3427ZM232.926 39H219.742V57H232.926V39ZM220.858 39.0695C221.089 39.0983 221.256 39.1348 221.349 39.1577C221.443 39.181 221.489 39.1973 221.482 39.1949C221.476 39.1927 221.433 39.1777 221.35 39.143C221.268 39.1086 221.156 39.059 221.013 38.9903L213.223 55.2177C214.631 55.8934 216.528 56.6683 218.626 56.9305L220.858 39.0695ZM221.27 39.119C220.532 38.735 219.703 38.2454 218.782 37.6315L208.798 52.6085C210.181 53.5306 211.571 54.3636 212.966 55.089L221.27 39.119ZM218.969 37.7597C218.152 37.1847 217.458 36.6122 216.868 36.0498L204.44 49.0702C205.728 50.2998 207.124 51.434 208.611 52.4803L218.969 37.7597ZM217.018 36.196C216.791 35.969 216.676 35.8287 216.636 35.7766C216.617 35.753 216.625 35.7609 216.65 35.8005C216.676 35.8399 216.724 35.9196 216.784 36.0391L200.684 44.0889C201.654 46.0285 203.004 47.6376 204.29 48.924L217.018 36.196ZM217.657 41.2424L219.449 27.6744L201.603 25.3176L199.811 38.8856L217.657 41.2424ZM219.521 26.1995L218.753 2.90345L200.763 3.49654L201.531 26.7925L219.521 26.1995ZM214.868 10.6089L216.724 9.32892L206.504 -5.48892L204.648 -4.20892L214.868 10.6089ZM210.004 10.7748C209.706 10.7206 209.483 10.6585 209.351 10.618C209.216 10.5764 209.131 10.5433 209.103 10.5323C209.058 10.5139 209.129 10.5402 209.342 10.6523L217.726 -5.27626C216.706 -5.81312 215.08 -6.59729 213.224 -6.93483L210.004 10.7748ZM209.509 10.7378C209.662 10.8144 209.906 10.9608 210.233 11.2362L221.827 -2.53221C220.533 -3.62214 219.112 -4.58506 217.559 -5.36185L209.509 10.7378ZM210.453 11.4159C210.249 11.2546 209.884 10.883 209.615 10.2853L226.029 2.89872C224.992 0.594329 223.433 -1.2706 221.607 -2.71195L210.453 11.4159ZM208.825 6.3421L208.249 27.0781L226.243 27.5779L226.819 6.8419L208.825 6.3421ZM208.247 27.1805C208.202 29.928 208.224 32.6195 208.315 35.2542L226.305 34.6338C226.225 32.3192 226.204 29.9333 226.245 27.4755L208.247 27.1805ZM208.316 35.2596C208.414 38.0558 208.69 40.7155 209.223 43.1457L226.805 39.2863C226.57 38.2179 226.377 36.6962 226.304 34.6284L208.316 35.2596ZM219.694 50.0577L233.838 47.3697L230.478 29.6863L216.334 32.3743L219.694 50.0577ZM241.053 39.9001L242.909 27.8681L225.119 25.1239L223.263 37.1559L241.053 39.9001ZM243.009 26.1995L242.241 2.90345L224.251 3.49654L225.019 26.7925L243.009 26.1995ZM238.356 10.6089L240.212 9.32891L229.992 -5.48892L228.136 -4.20892L238.356 10.6089ZM253.917 11.904L249.706 3.94991L243.085 7.45526L245.331 14.6024L253.917 11.904ZM256.669 16.064L250.514 22.6298L250.514 22.6298L256.669 16.064ZM261.469 19.904L256.319 27.2851L256.417 27.3532L256.516 27.4186L261.469 19.904ZM267.229 23.936L261.879 31.1736L261.917 31.201L261.954 31.228L267.229 23.936ZM272.861 28.928L266.277 35.0635L266.313 35.1031L266.351 35.1423L272.861 28.928ZM277.213 35.52L286.108 36.8885L286.508 34.2934L285.449 31.8907L277.213 35.52ZM275.357 40.576L283.109 45.1479L283.134 45.1052L283.159 45.0622L275.357 40.576ZM271.837 45.12L278.201 51.484L278.201 51.484L271.837 45.12ZM267.613 48.32L269.093 57.1975L270.533 56.9574L271.824 56.2741L267.613 48.32ZM262.301 48.832L261.918 39.8401L261.823 39.8442L261.728 39.8503L262.301 48.832ZM256.029 48.704L255.133 57.6593L255.142 57.6602L255.151 57.6611L256.029 48.704ZM249.821 47.424L244.261 54.5009L245.538 55.5042L247.085 55.9979L249.821 47.424ZM247.709 45.312L254.52 39.4294L254.52 39.4294L247.709 45.312ZM245.597 42.688L236.645 41.7579L236.285 45.2226L238.351 48.0268L245.597 42.688ZM246.621 32.832L243.911 24.2498L238.279 26.0281L237.669 31.9019L246.621 32.832ZM249.437 32.32L248.747 23.3465L248.733 23.3476L248.719 23.3487L249.437 32.32ZM252.381 32.576L261.36 31.9544L260.93 25.7443L254.967 23.9556L252.381 32.576ZM252.957 40.896L243.978 41.5176L244.477 48.7248L251.622 49.7964L252.957 40.896ZM258.525 41.152L258.15 32.1598L258.142 32.1601L258.525 41.152ZM264.541 40.448L266.269 49.2805L266.342 49.2663L266.414 49.251L264.541 40.448ZM269.725 38.656L273.936 46.6101L281.707 42.4959L277.775 34.6311L269.725 38.656ZM266.077 33.984L259.987 40.6109L260.037 40.6562L260.086 40.7007L266.077 33.984ZM260.829 29.824L255.535 37.1026L255.629 37.1703L255.723 37.2356L260.829 29.824ZM255.197 25.664L249.797 32.864L249.797 32.864L255.197 25.664ZM250.077 21.184L243.539 27.3688L243.582 27.4148L243.626 27.4602L250.077 21.184ZM246.685 15.872L237.827 14.282L237.377 16.7842L238.304 19.1516L246.685 15.872ZM248.221 10.944L240.049 7.17247L240.027 7.22046L240.006 7.26871L248.221 10.944ZM250.845 6.464L243.645 1.064L243.631 1.08265L243.617 1.10138L250.845 6.464ZM253.853 3.392L251.404 -5.26845L249.952 -4.85787L248.713 -3.99615L253.853 3.392ZM272.733 2.688L277.363 -5.02944L276.027 -5.8315L274.498 -6.13723L272.733 2.688ZM274.013 4.032L266.525 9.0243L266.605 9.14505L266.689 9.26315L274.013 4.032ZM275.229 5.952L267.385 10.3643L267.487 10.5456L267.597 10.722L275.229 5.952ZM276.253 7.552L285.199 8.53866L285.558 5.28408L283.741 2.55969L276.253 7.552ZM275.293 16.256L278.404 24.7011L283.628 22.7764L284.239 17.2427L275.293 16.256ZM269.597 16.384L260.628 17.1314L261.181 23.7646L267.685 25.1786L269.597 16.384ZM269.021 9.472L277.99 8.72459L277.361 1.17287L269.812 0.506827L269.021 9.472ZM264.157 9.472L264.585 18.4618L264.692 18.4567L264.798 18.4491L264.157 9.472ZM258.781 10.176L256.895 1.37578L258.781 10.176ZM245.331 14.6024C246.348 17.8367 248.24 20.4982 250.514 22.6298L262.824 9.49817C262.59 9.2783 262.491 9.13987 262.463 9.09838C262.44 9.06304 262.47 9.1014 262.503 9.20556L245.331 14.6024ZM250.514 22.6298C252.248 24.2558 254.196 25.804 256.319 27.2851L266.619 12.5229C265.072 11.444 263.821 10.4321 262.824 9.49816L250.514 22.6298ZM256.516 27.4186C258.248 28.5601 260.036 29.8108 261.879 31.1736L272.579 16.6984C270.497 15.1599 268.445 13.7226 266.422 12.3894L256.516 27.4186ZM261.954 31.228C263.469 32.3242 264.911 33.5976 266.277 35.0635L279.445 22.7925C277.313 20.5038 274.999 18.4491 272.504 16.644L261.954 31.228ZM266.351 35.1423C267.38 36.2202 268.263 37.5295 268.977 39.1493L285.449 31.8907C283.944 28.4759 281.926 25.3904 279.371 22.7137L266.351 35.1423ZM268.318 34.1515C268.257 34.5487 268.075 35.1857 267.555 36.0898L283.159 45.0622C284.602 42.5529 285.657 39.8193 286.108 36.8885L268.318 34.1515ZM267.605 36.0041C267.009 37.015 266.302 37.9274 265.473 38.756L278.201 51.484C280.103 49.5819 281.743 47.465 283.109 45.1479L267.605 36.0041ZM265.473 38.756C264.633 39.5958 263.934 40.084 263.402 40.3659L271.824 56.2741C274.193 55.02 276.31 53.3749 278.201 51.484L265.473 38.756ZM266.133 39.4425C265.046 39.6236 263.655 39.7662 261.918 39.8401L262.684 57.8239C264.958 57.7271 267.108 57.5284 269.093 57.1975L266.133 39.4425ZM261.728 39.8503C260.246 39.9448 258.643 39.9171 256.907 39.7469L255.151 57.6611C257.767 57.9176 260.345 57.9752 262.874 57.8137L261.728 39.8503ZM256.925 39.7487C255.405 39.5967 253.953 39.2955 252.557 38.8501L247.085 55.9979C249.7 56.8325 252.387 57.3846 255.133 57.6593L256.925 39.7487ZM255.381 40.3471C255.435 40.3896 255.38 40.3515 255.209 40.18C255.044 40.0151 254.816 39.7712 254.52 39.4294L240.898 51.1946C241.881 52.3335 243.015 53.5225 244.261 54.5009L255.381 40.3471ZM254.52 39.4294C253.828 38.628 253.275 37.9363 252.843 37.3492L238.351 48.0268C239.114 49.0611 239.968 50.1187 240.898 51.1946L254.52 39.4294ZM254.549 43.6181L255.573 33.7621L237.669 31.9019L236.645 41.7579L254.549 43.6181ZM249.331 41.4142C249.353 41.4072 249.599 41.3358 250.155 41.2913L248.719 23.3487C247.141 23.4749 245.51 23.7448 243.911 24.2498L249.331 41.4142ZM250.127 41.2935C250.254 41.2837 250.282 41.2911 250.225 41.2862C250.167 41.2811 250.015 41.2625 249.795 41.1964L254.967 23.9556C252.825 23.313 250.696 23.1966 248.747 23.3465L250.127 41.2935ZM243.402 33.1976L243.978 41.5176L261.936 40.2744L261.36 31.9544L243.402 33.1976ZM251.622 49.7964C253.98 50.1501 256.419 50.2498 258.908 50.1439L258.142 32.1601C256.621 32.2249 255.347 32.1539 254.292 31.9956L251.622 49.7964ZM258.9 50.1442C261.391 50.0404 263.849 49.754 266.269 49.2805L262.813 31.6155C261.308 31.91 259.755 32.0929 258.15 32.1598L258.9 50.1442ZM266.414 49.251C269.041 48.692 271.593 47.8506 273.936 46.6101L265.514 30.7019C264.956 30.9974 264.052 31.3506 262.668 31.645L266.414 49.251ZM277.775 34.6311C276.359 31.7997 274.405 29.3517 272.068 27.2673L260.086 40.7007C260.907 41.4323 261.384 42.0989 261.675 42.6809L277.775 34.6311ZM272.167 27.3571C270.253 25.5988 268.171 23.9529 265.935 22.4124L255.723 37.2356C257.327 38.3404 258.743 39.4679 259.987 40.6109L272.167 27.3571ZM266.123 22.5454C264.281 21.2063 262.439 19.8458 260.597 18.464L249.797 32.864C251.709 34.2982 253.622 35.7111 255.535 37.1026L266.123 22.5454ZM260.597 18.464C259.069 17.3181 257.717 16.1308 256.528 14.9078L243.626 27.4602C245.509 29.3945 247.57 31.1939 249.797 32.864L260.597 18.464ZM256.615 14.9992C255.892 14.2348 255.399 13.4435 255.066 12.5924L238.304 19.1516C239.507 22.2258 241.275 24.9759 243.539 27.3688L256.615 14.9992ZM255.543 17.462C255.707 16.552 255.994 15.6079 256.436 14.6193L240.006 7.26871C238.997 9.5228 238.261 11.864 237.827 14.282L255.543 17.462ZM256.393 14.7155C256.93 13.5509 257.499 12.6007 258.073 11.8266L243.617 1.10138C242.229 2.97259 241.048 5.00911 240.049 7.17247L256.393 14.7155ZM258.045 11.864C258.364 11.4392 258.616 11.1518 258.796 10.9686C258.977 10.7834 259.046 10.7429 258.993 10.7801L248.713 -3.99615C246.685 -2.58538 245.02 -0.76958 243.645 1.064L258.045 11.864ZM256.302 12.0524C261.095 10.6971 265.944 10.5084 270.968 11.5132L274.498 -6.13723C266.722 -7.69239 258.984 -7.41172 251.404 -5.26845L256.302 12.0524ZM268.103 10.4054C267.478 10.0304 267.071 9.64908 266.856 9.4229C266.637 9.19323 266.533 9.03706 266.525 9.0243L281.501 -0.960304C280.699 -2.16341 279.386 -3.81575 277.363 -5.02944L268.103 10.4054ZM266.689 9.26315C266.916 9.58027 267.149 9.94515 267.385 10.3643L283.073 1.53965C282.541 0.593517 281.963 -0.321607 281.337 -1.19915L266.689 9.26315ZM267.597 10.722C268.042 11.4334 268.437 12.0525 268.765 12.5443L283.741 2.55969C283.557 2.28351 283.27 1.83596 282.861 1.18201L267.597 10.722ZM267.307 6.56533L266.347 15.2693L284.239 17.2427L285.199 8.53866L267.307 6.56533ZM272.182 7.81091C272.533 7.68152 272.695 7.704 272.541 7.704V25.704C274.435 25.704 276.432 25.4278 278.404 24.7011L272.182 7.81091ZM272.541 7.704C272.217 7.704 271.877 7.66939 271.509 7.58941L267.685 25.1786C269.28 25.5253 270.902 25.704 272.541 25.704V7.704ZM278.566 15.6366L277.99 8.72459L260.052 10.2194L260.628 17.1314L278.566 15.6366ZM269.812 0.506827C267.79 0.328426 265.679 0.340336 263.516 0.494867L264.798 18.4491C266.219 18.3477 267.351 18.3596 268.23 18.4372L269.812 0.506827ZM263.729 0.482183C261.436 0.591361 259.157 0.891154 256.895 1.37578L260.667 18.9762C261.989 18.6928 263.294 18.5233 264.585 18.4618L263.729 0.482183ZM256.895 1.37578C254.386 1.91349 251.969 2.75204 249.706 3.94991L258.128 19.8581C258.767 19.52 259.592 19.2065 260.667 18.9762L256.895 1.37578ZM311.712 26.88L320.336 24.3091L320.329 24.2843L320.322 24.2595L311.712 26.88ZM317.664 46.848L322.656 54.3365L328.188 50.6485L326.288 44.2771L317.664 46.848ZM314.4 49.024L312.817 57.8838L316.38 58.5201L319.392 56.5125L314.4 49.024ZM310.56 47.616L306.337 55.564L310.56 47.616ZM306.848 44.864L297.894 45.7776L298.219 48.9635L300.484 51.228L306.848 44.864ZM305.888 35.456L314.841 34.5424L314.019 26.4913L305.927 26.4561L305.888 35.456ZM291.168 35.392L291.207 26.3921L284.509 26.363L282.558 32.7698L291.168 35.392ZM287.328 48V57H293.995L295.937 50.6222L287.328 48ZM283.552 48L277.345 54.5172L279.952 57H283.552V48ZM281.12 44.992L273.426 49.6628L273.464 49.7254L273.503 49.7873L281.12 44.992ZM279.392 40.896L271.428 36.7028L269.764 39.8633L270.72 43.3048L279.392 40.896ZM287.008 26.432L294.971 30.6252L295.264 30.0682L295.477 29.4758L287.008 26.432ZM292.896 10.048L301.365 13.0918L306.015 0.153388L292.297 1.06793L292.896 10.048ZM286.176 10.496L278.401 15.0308L281.211 19.847L286.774 19.4761L286.176 10.496ZM285.152 6.912L276.156 7.19311L276.16 7.33336L276.169 7.4734L285.152 6.912ZM285.536 3.264V-5.736H278.709L276.869 0.837328L285.536 3.264ZM298.656 3.264L302.847 -4.70026L300.879 -5.736H298.656V3.264ZM301.344 5.12L295.612 12.0587L295.774 12.1932L295.944 12.32L301.344 5.12ZM304.288 7.744L297.784 13.965L297.922 14.1095L298.067 14.2478L304.288 7.744ZM306.784 10.688L315.394 8.06754L315.007 6.799L314.272 5.6957L306.784 10.688ZM293.28 28.672L284.759 25.7722L280.663 37.8089L293.377 37.6715L293.28 28.672ZM305.12 28.544L305.217 37.5435L314.965 37.4381L314.083 27.7292L305.12 28.544ZM305.056 27.84L314.019 27.0252L313.929 26.0402L313.628 25.0982L305.056 27.84ZM299.488 10.432L308.06 7.69016L299.753 -18.2806L290.967 7.53219L299.488 10.432ZM303.087 29.4509L309.039 49.4189L326.288 44.2771L320.336 24.3091L303.087 29.4509ZM312.671 39.3595L309.407 41.5355L319.392 56.5125L322.656 54.3365L312.671 39.3595ZM315.982 40.1642C315.922 40.1535 315.535 40.0681 314.782 39.668L306.337 55.564C308.315 56.6145 310.488 57.4679 312.817 57.8838L315.982 40.1642ZM314.782 39.668C314.217 39.3677 313.699 38.9875 313.211 38.5L300.484 51.228C302.215 52.9592 304.172 54.4136 306.337 55.564L314.782 39.668ZM315.801 43.9504L314.841 34.5424L296.934 36.3696L297.894 45.7776L315.801 43.9504ZM305.927 26.4561L291.207 26.3921L291.128 44.3919L305.848 44.4559L305.927 26.4561ZM282.558 32.7698L278.718 45.3778L295.937 50.6222L299.777 38.0142L282.558 32.7698ZM287.328 39H283.552V57H287.328V39ZM289.758 41.4828C289.452 41.1913 289.103 40.7809 288.736 40.1967L273.503 49.7873C274.586 51.5071 275.859 53.102 277.345 54.5172L289.758 41.4828ZM288.813 40.3212C288.571 39.923 288.299 39.3374 288.063 38.4872L270.72 43.3048C271.337 45.5266 272.217 47.6716 273.426 49.6628L288.813 40.3212ZM287.355 45.0892L294.971 30.6252L279.044 22.2388L271.428 36.7028L287.355 45.0892ZM295.477 29.4758L301.365 13.0918L284.426 7.00421L278.538 23.3882L295.477 29.4758ZM292.297 1.06793L285.577 1.51593L286.774 19.4761L293.494 19.0281L292.297 1.06793ZM293.95 5.96116C294.047 6.12767 294.1 6.27008 294.125 6.35951C294.15 6.44452 294.14 6.45053 294.134 6.35059L276.169 7.4734C276.328 10.0233 276.996 12.6206 278.401 15.0308L293.95 5.96116ZM294.147 6.63089C294.137 6.30992 294.149 6.07602 294.166 5.91816C294.174 5.84009 294.183 5.78322 294.19 5.7456C294.197 5.70807 294.202 5.69054 294.202 5.69066L276.869 0.837328C276.274 2.96199 276.091 5.11809 276.156 7.19311L294.147 6.63089ZM285.536 12.264H298.656V-5.736H285.536V12.264ZM294.464 11.2283C294.562 11.28 294.938 11.5019 295.612 12.0587L307.075 -1.81865C305.787 -2.88325 304.37 -3.89863 302.847 -4.70026L294.464 11.2283ZM295.944 12.32C296.55 12.7751 297.165 13.3182 297.784 13.965L310.791 1.523C309.533 0.207139 308.185 -0.999123 306.743 -2.08L295.944 12.32ZM298.067 14.2478C298.62 14.7769 299.014 15.2582 299.295 15.6803L314.272 5.6957C313.188 4.06984 311.918 2.5884 310.508 1.24022L298.067 14.2478ZM298.173 13.3085L303.101 29.5005L320.322 24.2595L315.394 8.06754L298.173 13.3085ZM293.377 37.6715L305.217 37.5435L305.022 19.5445L293.182 19.6725L293.377 37.6715ZM314.083 27.7292L314.019 27.0252L296.092 28.6548L296.156 29.3588L314.083 27.7292ZM313.628 25.0982L308.06 7.69016L290.915 13.1738L296.483 30.5818L313.628 25.0982ZM290.967 7.53219L284.759 25.7722L301.8 31.5718L308.008 13.3318L290.967 7.53219ZM346.212 2.24L350.583 -5.62742L349.427 -6.26955L348.135 -6.5521L346.212 2.24ZM349.412 4.672L343.048 11.036L343.116 11.1037L343.185 11.1699L349.412 4.672ZM353.828 10.176L362.822 10.4926L362.907 8.08984L361.782 5.96501L353.828 10.176ZM352.74 41.088L360.79 45.1129L361.666 43.3615L361.734 41.4046L352.74 41.088ZM350.756 43.584L344.542 37.0738L344.466 37.146L344.392 37.22L350.756 43.584ZM347.684 46.144L352.676 53.6325L352.771 53.5695L352.863 53.5043L347.684 46.144ZM344.356 48.064L340.461 39.9503L340.332 40.0126L340.204 40.079L344.356 48.064ZM341.732 49.024L340.499 57.9392L341.673 58.1014L342.848 57.9545L341.732 49.024ZM327.844 47.104L329.077 38.1888L325.934 37.7543L323.214 39.3866L327.844 47.104ZM324.644 49.024L321.617 57.4997L325.625 58.9311L329.274 56.7414L324.644 49.024ZM320.484 46.144L311.556 45.0098L311.089 48.6821L313.342 51.6199L320.484 46.144ZM322.98 26.496L331.908 27.6302L331.999 26.9175L331.975 26.1995L322.98 26.496ZM322.212 3.2L317.102 -4.20892L313.055 -1.41753L313.217 3.49654L322.212 3.2ZM324.068 1.92L325.833 -6.90523L322.096 -7.65266L318.958 -5.48892L324.068 1.92ZM325.796 2.56L321.964 10.7034L322.245 10.8355L322.534 10.948L325.796 2.56ZM328.036 3.648L323.473 11.4054L323.568 11.4616L323.665 11.5154L328.036 3.648ZM329.892 4.864L324.193 11.8296L328.752 15.5598L333.995 12.8744L329.892 4.864ZM335.524 2.816L333.473 -5.9472L333.473 -5.9472L335.524 2.816ZM341.348 1.984L341.757 10.9747L341.859 10.9701L341.96 10.9632L341.348 1.984ZM329.572 41.472H320.572V51.5903L330.621 50.4106L329.572 41.472ZM344.292 39.744L345.341 48.6826L351.676 47.9389L353.073 41.7153L344.292 39.744ZM345.444 32.576L336.516 31.4422L336.507 31.5121L336.499 31.5821L345.444 32.576ZM346.084 24.32L337.093 23.9113L337.09 23.9793L337.088 24.0474L346.084 24.32ZM346.02 16.192L337.039 16.7809L337.039 16.7809L346.02 16.192ZM345.06 9.472L353.791 7.28918L352.312 1.37013L346.265 0.553064L345.06 9.472ZM339.94 9.408L340.581 18.3851L340.678 18.3782L340.774 18.3693L339.94 9.408ZM334.628 10.24L336.604 19.0205L336.682 19.0028L336.761 18.9837L334.628 10.24ZM330.084 11.776L326.164 3.67456L321.268 6.04365L321.089 11.4799L330.084 11.776ZM329.572 27.328L320.577 27.0319L320.572 27.1799V27.328H329.572ZM341.841 10.1074C342.224 10.3203 342.627 10.6145 343.048 11.036L355.776 -1.69196C354.235 -3.23318 352.504 -4.56026 350.583 -5.62742L341.841 10.1074ZM343.185 11.1699C343.941 11.8947 344.541 12.5609 345.012 13.1628L359.188 2.06922C358.123 0.708471 356.931 -0.588055 355.639 -1.8259L343.185 11.1699ZM345.012 13.1628C345.602 13.9166 345.831 14.3062 345.874 14.387L361.782 5.96501C361.057 4.59512 360.134 3.27811 359.188 2.06922L345.012 13.1628ZM344.834 9.85942L343.746 40.7714L361.734 41.4046L362.822 10.4926L344.834 9.85942ZM344.69 37.0631C344.765 36.914 344.828 36.8107 344.866 36.7535C344.903 36.696 344.921 36.6742 344.911 36.6878C344.9 36.7012 344.867 36.7418 344.804 36.8093C344.742 36.8766 344.656 36.9649 344.542 37.0738L356.97 50.0942C358.315 48.8103 359.768 47.1559 360.79 45.1129L344.69 37.0631ZM344.392 37.22C343.899 37.7127 343.28 38.2381 342.505 38.7837L352.863 53.5043C354.392 52.4286 355.821 51.2473 357.12 49.948L344.392 37.22ZM342.692 38.6555C341.833 39.2279 341.091 39.6483 340.461 39.9503L348.251 56.1777C349.755 55.4557 351.231 54.5961 352.676 53.6325L342.692 38.6555ZM340.204 40.079C340.068 40.1497 339.966 40.1985 339.895 40.2304C339.823 40.2626 339.795 40.2724 339.808 40.2679C339.819 40.2638 339.889 40.2384 340.013 40.2062C340.135 40.1744 340.34 40.128 340.616 40.0935L342.848 57.9545C345.101 57.6729 347.093 56.7849 348.508 56.049L340.204 40.079ZM342.965 40.1088L329.077 38.1888L326.611 56.0192L340.499 57.9392L342.965 40.1088ZM323.214 39.3866L320.014 41.3066L329.274 56.7414L332.474 54.8214L323.214 39.3866ZM327.671 40.5483C327.424 40.4602 327.351 40.4022 327.383 40.4243C327.399 40.4351 327.434 40.4614 327.481 40.5058C327.528 40.5505 327.578 40.6052 327.626 40.6681L313.342 51.6199C315.555 54.5067 318.491 56.3834 321.617 57.4997L327.671 40.5483ZM329.412 47.2782L331.908 27.6302L314.052 25.3618L311.556 45.0098L329.412 47.2782ZM331.975 26.1995L331.207 2.90345L313.217 3.49654L313.985 26.7925L331.975 26.1995ZM327.322 10.6089L329.178 9.32892L318.958 -5.48892L317.102 -4.20892L327.322 10.6089ZM322.303 10.7452C322.091 10.7028 321.935 10.6599 321.847 10.6335C321.756 10.6064 321.703 10.587 321.694 10.5837C321.683 10.5797 321.767 10.6107 321.964 10.7034L329.628 -5.58337C328.697 -6.02156 327.338 -6.60422 325.833 -6.90523L322.303 10.7452ZM322.534 10.948C322.843 11.0681 323.155 11.2183 323.473 11.4054L332.599 -4.10941C331.467 -4.77565 330.285 -5.35073 329.058 -5.82804L322.534 10.948ZM323.665 11.5154C323.892 11.6416 324.047 11.7371 324.144 11.8001C324.243 11.8651 324.25 11.8764 324.193 11.8296L335.591 -2.10161C334.568 -2.93892 333.455 -3.63714 332.407 -4.21942L323.665 11.5154ZM333.995 12.8744C335.063 12.3273 336.248 11.8899 337.575 11.5792L333.473 -5.9472C330.79 -5.31919 328.22 -4.39133 325.789 -3.14639L333.995 12.8744ZM337.575 11.5792C339.092 11.2242 340.482 11.0326 341.757 10.9747L340.939 -7.00672C338.459 -6.89397 335.967 -6.53085 333.473 -5.9472L337.575 11.5792ZM341.96 10.9632C343.261 10.8744 343.986 10.966 344.289 11.0321L348.135 -6.5521C345.707 -7.0833 343.189 -7.16245 340.736 -6.99516L341.96 10.9632ZM330.621 50.4106L345.341 48.6826L343.243 30.8054L328.523 32.5334L330.621 50.4106ZM353.073 41.7153C353.631 39.2315 354.063 36.5057 354.389 33.5699L336.499 31.5821C336.228 34.0223 335.892 36.0752 335.511 37.7727L353.073 41.7153ZM354.372 33.7098C354.751 30.7249 354.986 27.6852 355.08 24.5926L337.088 24.0474C337.011 26.5868 336.819 29.0511 336.516 31.4422L354.372 33.7098ZM355.075 24.7287C355.217 21.6066 355.195 18.5632 355.001 15.6031L337.039 16.7809C337.187 19.0261 337.207 21.4014 337.093 23.9113L355.075 24.7287ZM355.001 15.6031C354.806 12.6349 354.427 9.83357 353.791 7.28918L336.329 11.6548C336.631 12.8651 336.893 14.5438 337.039 16.7809L355.001 15.6031ZM346.265 0.553064C343.915 0.235493 341.517 0.222456 339.106 0.446686L340.774 18.3693C342.032 18.2522 343.047 18.2818 343.855 18.3909L346.265 0.553064ZM339.299 0.430869C337.003 0.594865 334.733 0.950477 332.495 1.49631L336.761 18.9837C338.021 18.6762 339.293 18.4771 340.581 18.3851L339.299 0.430869ZM332.652 1.45951C330.397 1.96699 328.211 2.68414 326.164 3.67456L334.004 19.8774C334.602 19.5879 335.446 19.281 336.604 19.0205L332.652 1.45951ZM321.089 11.4799L320.577 27.0319L338.567 27.6241L339.079 12.0721L321.089 11.4799ZM320.572 27.328V41.472H338.572V27.328H320.572ZM389.658 38.656L397.708 34.6311L394.874 28.9634L388.583 29.7205L389.658 38.656ZM391.258 41.856L399.414 45.662L401.253 41.721L399.308 37.8311L391.258 41.856ZM388.762 45.696L395.579 51.5725L395.628 51.5155L395.676 51.4577L388.762 45.696ZM385.434 49.024L384.698 57.9939L388.424 58.2995L391.27 55.8752L385.434 49.024ZM365.146 47.36L365.882 38.3901L362.98 38.1522L360.489 39.6584L365.146 47.36ZM362.394 49.024L359.367 57.4997L363.393 58.9374L367.051 56.7256L362.394 49.024ZM358.234 46.144L349.306 45.0098L348.839 48.6821L351.092 51.6199L358.234 46.144ZM360.73 26.496L369.658 27.6302L369.749 26.9175L369.725 26.1995L360.73 26.496ZM359.962 3.2L354.852 -4.20892L350.805 -1.41753L350.967 3.49654L359.962 3.2ZM361.818 1.92L363.428 -6.93483L359.769 -7.6L356.708 -5.48892L361.818 1.92ZM363.802 2.688L359.777 10.7378L360.014 10.8561L360.257 10.9603L363.802 2.688ZM366.298 3.968L361.605 11.6475L364.222 13.2471L367.272 12.9152L366.298 3.968ZM385.114 1.92L389.785 -5.77309L387.175 -7.3575L384.14 -7.02716L385.114 1.92ZM388.25 4.416L381.74 10.6303L381.812 10.706L381.886 10.78L388.25 4.416ZM390.874 7.552L399.586 9.81066L400.631 5.77883L398.234 2.37256L390.874 7.552ZM389.978 11.008L389.744 20.005L396.895 20.191L398.69 13.2667L389.978 11.008ZM367.834 10.432L368.068 1.43504L359.117 1.2022L358.838 10.1523L367.834 10.432ZM367.45 22.784L358.454 22.5043L358.12 33.2486L368.756 31.6887L367.45 22.784ZM381.85 20.672L386.072 12.724L383.465 11.3388L380.544 11.7673L381.85 20.672ZM385.242 22.912L379.385 29.7453L379.463 29.8124L379.543 29.8776L385.242 22.912ZM387.61 25.728L396.323 27.9814L397.245 24.4183L395.406 21.2305L387.61 25.728ZM386.65 29.44L386.352 38.4351L393.558 38.6737L395.363 31.6934L386.65 29.44ZM367.322 28.8L367.62 19.8049L358.322 19.4971V28.8H367.322ZM367.322 41.344H358.322V51.492L368.397 50.2795L367.322 41.344ZM381.608 42.6809L383.208 45.8809L399.308 37.8311L397.708 34.6311L381.608 42.6809ZM383.102 38.05C382.885 38.5149 382.505 39.1465 381.848 39.9343L395.676 51.4577C397.153 49.6855 398.436 47.7571 399.414 45.662L383.102 38.05ZM381.945 39.8195C381.156 40.7347 380.372 41.5133 379.598 42.1728L391.27 55.8752C392.8 54.572 394.234 53.132 395.579 51.5725L381.945 39.8195ZM386.17 40.0541L365.882 38.3901L364.41 56.3299L384.698 57.9939L386.17 40.0541ZM360.489 39.6584L357.737 41.3224L367.051 56.7256L369.803 55.0616L360.489 39.6584ZM365.421 40.5483C365.174 40.4602 365.101 40.4022 365.133 40.4243C365.149 40.4351 365.184 40.4614 365.231 40.5058C365.278 40.5505 365.328 40.6052 365.376 40.6681L351.092 51.6199C353.305 54.5067 356.241 56.3834 359.367 57.4997L365.421 40.5483ZM367.162 47.2782L369.658 27.6302L351.802 25.3618L349.306 45.0098L367.162 47.2782ZM369.725 26.1995L368.957 2.90345L350.967 3.49654L351.735 26.7925L369.725 26.1995ZM365.072 10.6089L366.928 9.32892L356.708 -5.48892L354.852 -4.20892L365.072 10.6089ZM360.208 10.7748C359.923 10.723 359.716 10.6655 359.605 10.6319C359.489 10.5971 359.424 10.5718 359.417 10.5691C359.408 10.5656 359.434 10.5755 359.5 10.6051C359.565 10.6343 359.656 10.6774 359.777 10.7378L367.827 -5.36184C366.812 -5.86909 365.209 -6.61099 363.428 -6.93483L360.208 10.7748ZM360.257 10.9603C360.789 11.1883 361.234 11.4207 361.605 11.6475L370.991 -3.71153C369.826 -4.42334 368.607 -5.04434 367.347 -5.58431L360.257 10.9603ZM367.272 12.9152L386.088 10.8672L384.14 -7.02716L365.324 -4.97916L367.272 12.9152ZM380.443 9.61308C381.014 9.95975 381.43 10.3053 381.74 10.6303L394.76 -1.79829C393.278 -3.35064 391.603 -4.66908 389.785 -5.77309L380.443 9.61308ZM381.886 10.78C382.438 11.3316 382.983 11.9766 383.514 12.7314L398.234 2.37256C397.144 0.823436 395.94 -0.622315 394.614 -1.94796L381.886 10.78ZM382.162 5.29334L381.266 8.74934L398.69 13.2667L399.586 9.81066L382.162 5.29334ZM390.212 2.01104L368.068 1.43504L367.6 19.429L389.744 20.005L390.212 2.01104ZM358.838 10.1523L358.454 22.5043L376.446 23.0637L376.83 10.7117L358.838 10.1523ZM368.756 31.6887L383.156 29.5767L380.544 11.7673L366.144 13.8793L368.756 31.6887ZM377.628 28.62C378.578 29.1247 379.118 29.5166 379.385 29.7453L391.099 16.0787C389.574 14.7714 387.853 13.6699 386.072 12.724L377.628 28.62ZM379.543 29.8776C379.593 29.9185 379.687 30.0055 379.814 30.2255L395.406 21.2305C394.253 19.2318 392.769 17.4415 390.941 15.9464L379.543 29.8776ZM378.897 23.4746L377.937 27.1866L395.363 31.6934L396.323 27.9814L378.897 23.4746ZM386.948 20.4449L367.62 19.8049L367.024 37.7951L386.352 38.4351L386.948 20.4449ZM358.322 28.8V41.344H376.322V28.8H358.322ZM368.397 50.2795L390.733 47.5915L388.583 29.7205L366.247 32.4085L368.397 50.2795ZM419.432 29.056L413.766 22.0636L407.996 26.7389L411.491 33.2913L419.432 29.056ZM428.648 46.336L434.505 53.1693L439.987 48.4709L436.589 42.1007L428.648 46.336ZM425.512 49.024L423.93 57.8838L428.13 58.6338L431.369 55.8573L425.512 49.024ZM421.48 47.616L417.548 55.7116L417.548 55.7116L421.48 47.616ZM417.576 44.864L408.895 47.2383L409.524 49.5404L411.212 51.228L417.576 44.864ZM413.48 29.888L422.161 27.5137L420.284 20.6514L413.174 20.8932L413.48 29.888ZM404.072 30.208L403.766 21.2132L395.072 21.5089V30.208H404.072ZM404.072 46.016L408.761 53.698L413.072 51.0666V46.016H404.072ZM399.144 49.024L396.117 57.4997L400.165 58.9452L403.833 56.706L399.144 49.024ZM394.984 46.144L386.056 45.0098L385.589 48.6821L387.842 51.6199L394.984 46.144ZM397.48 26.496L406.408 27.6302L406.499 26.9175L406.475 26.1995L397.48 26.496ZM396.712 3.2L391.602 -4.20892L387.555 -1.41753L387.717 3.49654L396.712 3.2ZM398.568 1.92L399.841 -6.98955L396.356 -7.48735L393.458 -5.48892L398.568 1.92ZM401.128 2.88L397.103 10.9298L397.163 10.9599L397.224 10.989L401.128 2.88ZM404.008 4.608L398.483 11.7122L402.911 15.1567L407.954 12.6969L404.008 4.608ZM409.512 2.688L407.6 -6.10659L407.58 -6.10218L407.56 -6.09768L409.512 2.688ZM415.144 1.92L414.726 -7.07029L414.716 -7.06982L415.144 1.92ZM419.944 2.24L424.315 -5.62742L423.159 -6.26955L421.867 -6.5521L419.944 2.24ZM423.208 4.672L429.435 -1.8259L429.435 -1.8259L423.208 4.672ZM425.896 7.68L418.696 13.08L418.823 13.249L418.957 13.4119L425.896 7.68ZM427.688 10.24L436.669 10.8238L436.834 8.28101L435.642 6.02901L427.688 10.24ZM426.856 23.04L432.522 30.0324L435.582 27.5532L435.837 23.6238L426.856 23.04ZM419.176 9.344L428.06 7.90335L427.02 1.49291L420.609 0.458828L419.176 9.344ZM414.632 9.152L414.857 18.1492L414.969 18.1464L415.081 18.1408L414.632 9.152ZM409.448 9.728L407.724 0.89458L407.704 0.898627L407.683 0.902772L409.448 9.728ZM404.584 11.264L400.929 3.0397L395.754 5.33943L395.588 10.9994L404.584 11.264ZM404.2 24.32L395.204 24.0554L394.866 35.5278L406.088 33.1197L404.2 24.32ZM419.112 21.12L421 29.9197L427.282 28.5716L428.048 22.1923L419.112 21.12ZM419.496 14.848L410.498 14.6644L410.496 14.7562V14.848H419.496ZM411.491 33.2913L420.707 50.5713L436.589 42.1007L427.373 24.8207L411.491 33.2913ZM422.791 39.5027L419.655 42.1907L431.369 55.8573L434.505 53.1693L422.791 39.5027ZM427.094 40.1642C426.951 40.1386 426.414 40.007 425.412 39.5204L417.548 55.7116C419.533 56.6757 421.684 57.4827 423.93 57.8838L427.094 40.1642ZM425.412 39.5204C424.767 39.2072 424.3 38.8605 423.94 38.5L411.212 51.228C413.07 53.0862 415.206 54.5741 417.548 55.7116L425.412 39.5204ZM426.257 42.4897L422.161 27.5137L404.799 32.2623L408.895 47.2383L426.257 42.4897ZM413.174 20.8932L403.766 21.2132L404.378 39.2028L413.786 38.8828L413.174 20.8932ZM395.072 30.208V46.016H413.072V30.208H395.072ZM399.383 38.334L394.455 41.342L403.833 56.706L408.761 53.698L399.383 38.334ZM402.171 40.5483C401.924 40.4602 401.851 40.4022 401.883 40.4243C401.899 40.4351 401.934 40.4614 401.981 40.5058C402.028 40.5505 402.078 40.6052 402.126 40.6681L387.842 51.6199C390.055 54.5067 392.991 56.3834 396.117 57.4997L402.171 40.5483ZM403.912 47.2782L406.408 27.6302L388.552 25.3618L386.056 45.0098L403.912 47.2782ZM406.475 26.1995L405.707 2.90345L387.717 3.49654L388.485 26.7925L406.475 26.1995ZM401.822 10.6089L403.678 9.32892L393.458 -5.48892L391.602 -4.20892L401.822 10.6089ZM397.295 10.8295C397.131 10.806 396.994 10.7798 396.889 10.7569C396.784 10.734 396.701 10.7124 396.642 10.696C396.529 10.6643 396.477 10.6438 396.496 10.651C396.513 10.6572 396.572 10.6805 396.68 10.7286C396.787 10.7762 396.927 10.8419 397.103 10.9298L405.153 -5.16985C403.892 -5.80031 401.953 -6.6878 399.841 -6.98955L397.295 10.8295ZM397.224 10.989C397.969 11.348 398.346 11.6061 398.483 11.7122L409.533 -2.49617C408.134 -3.58481 406.591 -4.47863 405.032 -5.22902L397.224 10.989ZM407.954 12.6969C409.062 12.1565 410.227 11.7487 411.464 11.4737L407.56 -6.09768C404.957 -5.51942 402.453 -4.64719 400.062 -3.48092L407.954 12.6969ZM411.424 11.4826C412.955 11.1497 414.334 10.9688 415.572 10.9098L414.716 -7.06982C412.37 -6.95809 409.994 -6.62703 407.6 -6.10659L411.424 11.4826ZM415.562 10.9103C416.842 10.8508 417.621 10.9446 418.021 11.0321L421.867 -6.5521C419.537 -7.06196 417.116 -7.18143 414.726 -7.07028L415.562 10.9103ZM415.573 10.1074C416.001 10.3451 416.472 10.6824 416.981 11.1699L429.435 -1.8259C427.896 -3.30103 426.191 -4.58506 424.315 -5.62742L415.573 10.1074ZM416.981 11.1699C417.689 11.8481 418.251 12.4872 418.696 13.08L433.096 2.28C432.005 0.824839 430.775 -0.541487 429.435 -1.8259L416.981 11.1699ZM418.957 13.4119C419.242 13.7569 419.443 14.0237 419.579 14.2172C419.718 14.4161 419.755 14.4902 419.734 14.451L435.642 6.02901C434.861 4.55383 433.847 3.17337 432.835 1.94805L418.957 13.4119ZM418.707 9.65623L417.875 22.4562L435.837 23.6238L436.669 10.8238L418.707 9.65623ZM421.19 16.0476L413.766 22.0636L425.098 36.0484L432.522 30.0324L421.19 16.0476ZM420.609 0.458828C418.522 0.122136 416.356 0.0545699 414.183 0.163225L415.081 18.1408C416.322 18.0788 417.185 18.1392 417.743 18.2292L420.609 0.458828ZM414.407 0.154808C412.176 0.210597 409.946 0.461059 407.724 0.89458L411.172 18.5614C412.448 18.3123 413.675 18.1787 414.857 18.1492L414.407 0.154808ZM407.683 0.902772C405.349 1.36955 403.092 2.07831 400.929 3.0397L408.239 19.4883C409.148 19.0844 410.134 18.7691 411.213 18.5532L407.683 0.902772ZM395.588 10.9994L395.204 24.0554L413.196 24.5846L413.58 11.5286L395.588 10.9994ZM406.088 33.1197L421 29.9197L417.224 12.3203L402.312 15.5203L406.088 33.1197ZM428.048 22.1923C428.345 19.7205 428.496 17.2714 428.496 14.848H410.496C410.496 16.5206 410.391 18.2529 410.176 20.0477L428.048 22.1923ZM428.494 15.0316C428.545 12.5527 428.425 10.1533 428.06 7.90335L410.292 10.7846C410.439 11.6921 410.533 12.9619 410.498 14.6644L428.494 15.0316ZM440.167 11.904L435.956 3.94991L429.335 7.45526L431.581 14.6024L440.167 11.904ZM442.919 16.064L436.764 22.6298L436.764 22.6298L442.919 16.064ZM447.719 19.904L442.569 27.2851L442.667 27.3532L442.766 27.4186L447.719 19.904ZM453.479 23.936L448.129 31.1736L448.167 31.201L448.204 31.228L453.479 23.936ZM459.111 28.928L452.527 35.0635L452.563 35.1031L452.601 35.1423L459.111 28.928ZM463.463 35.52L472.358 36.8885L472.758 34.2934L471.699 31.8907L463.463 35.52ZM461.607 40.576L469.359 45.1479L469.384 45.1052L469.409 45.0622L461.607 40.576ZM458.087 45.12L464.451 51.484L464.451 51.484L458.087 45.12ZM453.863 48.32L455.343 57.1975L456.783 56.9574L458.074 56.2741L453.863 48.32ZM448.551 48.832L448.168 39.8401L448.073 39.8442L447.978 39.8503L448.551 48.832ZM442.279 48.704L441.383 57.6593L441.392 57.6602L441.401 57.6611L442.279 48.704ZM436.071 47.424L430.511 54.5009L431.788 55.5042L433.335 55.9979L436.071 47.424ZM433.959 45.312L440.77 39.4294L440.77 39.4294L433.959 45.312ZM431.847 42.688L422.895 41.7579L422.535 45.2226L424.601 48.0268L431.847 42.688ZM432.871 32.832L430.161 24.2498L424.529 26.0281L423.919 31.9019L432.871 32.832ZM435.687 32.32L434.997 23.3465L434.983 23.3476L434.969 23.3487L435.687 32.32ZM438.631 32.576L447.61 31.9544L447.18 25.7443L441.217 23.9556L438.631 32.576ZM439.207 40.896L430.228 41.5176L430.727 48.7248L437.872 49.7964L439.207 40.896ZM444.775 41.152L444.4 32.1598L444.392 32.1601L444.775 41.152ZM450.791 40.448L452.519 49.2805L452.592 49.2663L452.664 49.251L450.791 40.448ZM455.975 38.656L460.186 46.6101L467.957 42.4959L464.025 34.6311L455.975 38.656ZM452.327 33.984L446.237 40.6109L446.287 40.6562L446.336 40.7007L452.327 33.984ZM447.079 29.824L441.785 37.1026L441.879 37.1703L441.973 37.2356L447.079 29.824ZM441.447 25.664L436.047 32.864L436.047 32.864L441.447 25.664ZM436.327 21.184L429.789 27.3688L429.832 27.4148L429.876 27.4602L436.327 21.184ZM432.935 15.872L424.077 14.282L423.627 16.7842L424.554 19.1516L432.935 15.872ZM434.471 10.944L426.299 7.17247L426.277 7.22046L426.256 7.26871L434.471 10.944ZM437.095 6.464L429.895 1.064L429.881 1.08265L429.867 1.10138L437.095 6.464ZM440.103 3.392L437.654 -5.26845L436.202 -4.85787L434.963 -3.99615L440.103 3.392ZM458.983 2.688L463.613 -5.02944L462.277 -5.8315L460.748 -6.13723L458.983 2.688ZM460.263 4.032L452.775 9.0243L452.855 9.14505L452.939 9.26315L460.263 4.032ZM461.479 5.952L453.635 10.3643L453.737 10.5456L453.847 10.722L461.479 5.952ZM462.503 7.552L471.449 8.53866L471.808 5.28408L469.991 2.55969L462.503 7.552ZM461.543 16.256L464.654 24.7011L469.878 22.7764L470.489 17.2427L461.543 16.256ZM455.847 16.384L446.878 17.1314L447.431 23.7646L453.935 25.1786L455.847 16.384ZM455.271 9.472L464.24 8.72459L463.611 1.17287L456.062 0.506827L455.271 9.472ZM450.407 9.472L450.835 18.4618L450.942 18.4567L451.048 18.4491L450.407 9.472ZM445.031 10.176L443.145 1.37578L445.031 10.176ZM431.581 14.6024C432.598 17.8367 434.49 20.4982 436.764 22.6298L449.074 9.49817C448.84 9.2783 448.741 9.13987 448.713 9.09838C448.69 9.06304 448.72 9.1014 448.753 9.20556L431.581 14.6024ZM436.764 22.6298C438.498 24.2558 440.446 25.804 442.569 27.2851L452.869 12.5229C451.322 11.444 450.071 10.4321 449.074 9.49816L436.764 22.6298ZM442.766 27.4186C444.498 28.5601 446.286 29.8108 448.129 31.1736L458.829 16.6984C456.747 15.1599 454.695 13.7226 452.672 12.3894L442.766 27.4186ZM448.204 31.228C449.719 32.3242 451.161 33.5976 452.527 35.0635L465.695 22.7925C463.563 20.5038 461.249 18.4491 458.754 16.644L448.204 31.228ZM452.601 35.1423C453.63 36.2202 454.513 37.5295 455.227 39.1493L471.699 31.8907C470.194 28.4759 468.176 25.3904 465.621 22.7137L452.601 35.1423ZM454.568 34.1515C454.507 34.5487 454.325 35.1857 453.805 36.0898L469.409 45.0622C470.852 42.5529 471.907 39.8193 472.358 36.8885L454.568 34.1515ZM453.855 36.0041C453.259 37.015 452.552 37.9274 451.723 38.756L464.451 51.484C466.353 49.5819 467.993 47.465 469.359 45.1479L453.855 36.0041ZM451.723 38.756C450.883 39.5958 450.184 40.084 449.652 40.3659L458.074 56.2741C460.443 55.02 462.56 53.3749 464.451 51.484L451.723 38.756ZM452.383 39.4425C451.296 39.6236 449.905 39.7662 448.168 39.8401L448.934 57.8239C451.208 57.7271 453.358 57.5284 455.343 57.1975L452.383 39.4425ZM447.978 39.8503C446.496 39.9448 444.893 39.9171 443.157 39.7469L441.401 57.6611C444.017 57.9176 446.595 57.9752 449.124 57.8137L447.978 39.8503ZM443.175 39.7487C441.655 39.5967 440.203 39.2955 438.807 38.8501L433.335 55.9979C435.95 56.8325 438.637 57.3846 441.383 57.6593L443.175 39.7487ZM441.631 40.3471C441.685 40.3896 441.63 40.3515 441.459 40.18C441.294 40.0151 441.066 39.7712 440.77 39.4294L427.148 51.1946C428.131 52.3335 429.265 53.5225 430.511 54.5009L441.631 40.3471ZM440.77 39.4294C440.078 38.628 439.525 37.9363 439.093 37.3492L424.601 48.0268C425.364 49.0611 426.218 50.1187 427.148 51.1946L440.77 39.4294ZM440.799 43.6181L441.823 33.7621L423.919 31.9019L422.895 41.7579L440.799 43.6181ZM435.581 41.4142C435.603 41.4072 435.849 41.3358 436.405 41.2913L434.969 23.3487C433.391 23.4749 431.76 23.7448 430.161 24.2498L435.581 41.4142ZM436.377 41.2935C436.504 41.2837 436.532 41.2911 436.475 41.2862C436.417 41.2811 436.265 41.2625 436.045 41.1964L441.217 23.9556C439.075 23.313 436.946 23.1966 434.997 23.3465L436.377 41.2935ZM429.652 33.1976L430.228 41.5176L448.186 40.2744L447.61 31.9544L429.652 33.1976ZM437.872 49.7964C440.23 50.1501 442.669 50.2498 445.158 50.1439L444.392 32.1601C442.871 32.2249 441.597 32.1539 440.542 31.9956L437.872 49.7964ZM445.15 50.1442C447.641 50.0404 450.099 49.754 452.519 49.2805L449.063 31.6155C447.558 31.91 446.005 32.0929 444.4 32.1598L445.15 50.1442ZM452.664 49.251C455.291 48.692 457.843 47.8506 460.186 46.6101L451.764 30.7019C451.206 30.9974 450.302 31.3506 448.918 31.645L452.664 49.251ZM464.025 34.6311C462.609 31.7997 460.655 29.3517 458.318 27.2673L446.336 40.7007C447.157 41.4323 447.634 42.0989 447.925 42.6809L464.025 34.6311ZM458.417 27.3571C456.503 25.5988 454.421 23.9529 452.185 22.4124L441.973 37.2356C443.577 38.3404 444.993 39.4679 446.237 40.6109L458.417 27.3571ZM452.373 22.5454C450.531 21.2063 448.689 19.8458 446.847 18.464L436.047 32.864C437.959 34.2982 439.872 35.7111 441.785 37.1026L452.373 22.5454ZM446.847 18.464C445.319 17.3181 443.967 16.1308 442.778 14.9078L429.876 27.4602C431.759 29.3945 433.82 31.1939 436.047 32.864L446.847 18.464ZM442.865 14.9992C442.142 14.2348 441.649 13.4435 441.316 12.5924L424.554 19.1516C425.757 22.2258 427.525 24.9759 429.789 27.3688L442.865 14.9992ZM441.793 17.462C441.957 16.552 442.244 15.6079 442.686 14.6193L426.256 7.26871C425.247 9.5228 424.511 11.864 424.077 14.282L441.793 17.462ZM442.643 14.7155C443.18 13.5509 443.749 12.6007 444.323 11.8266L429.867 1.10138C428.479 2.97259 427.298 5.00911 426.299 7.17247L442.643 14.7155ZM444.295 11.864C444.614 11.4392 444.866 11.1518 445.046 10.9686C445.227 10.7834 445.296 10.7429 445.243 10.7801L434.963 -3.99615C432.935 -2.58538 431.27 -0.76958 429.895 1.064L444.295 11.864ZM442.552 12.0524C447.345 10.6971 452.194 10.5084 457.218 11.5132L460.748 -6.13723C452.972 -7.69239 445.234 -7.41172 437.654 -5.26845L442.552 12.0524ZM454.353 10.4054C453.728 10.0304 453.321 9.64908 453.106 9.4229C452.887 9.19323 452.783 9.03706 452.775 9.0243L467.751 -0.960304C466.949 -2.16341 465.636 -3.81575 463.613 -5.02944L454.353 10.4054ZM452.939 9.26315C453.166 9.58027 453.399 9.94515 453.635 10.3643L469.323 1.53965C468.791 0.593517 468.213 -0.321607 467.587 -1.19915L452.939 9.26315ZM453.847 10.722C454.292 11.4334 454.687 12.0525 455.015 12.5443L469.991 2.55969C469.807 2.28351 469.52 1.83596 469.111 1.18201L453.847 10.722ZM453.557 6.56533L452.597 15.2693L470.489 17.2427L471.449 8.53866L453.557 6.56533ZM458.432 7.81091C458.783 7.68152 458.945 7.704 458.791 7.704V25.704C460.685 25.704 462.682 25.4278 464.654 24.7011L458.432 7.81091ZM458.791 7.704C458.467 7.704 458.127 7.66939 457.759 7.58941L453.935 25.1786C455.53 25.5253 457.152 25.704 458.791 25.704V7.704ZM464.816 15.6366L464.24 8.72459L446.302 10.2194L446.878 17.1314L464.816 15.6366ZM456.062 0.506827C454.04 0.328426 451.929 0.340336 449.766 0.494867L451.048 18.4491C452.469 18.3477 453.601 18.3596 454.48 18.4372L456.062 0.506827ZM449.979 0.482183C447.686 0.591361 445.407 0.891154 443.145 1.37578L446.917 18.9762C448.239 18.6928 449.544 18.5233 450.835 18.4618L449.979 0.482183ZM443.145 1.37578C440.636 1.91349 438.219 2.75204 435.956 3.94991L444.378 19.8581C445.017 19.52 445.842 19.2065 446.917 18.9762L443.145 1.37578Z" fill="#423B3B" mask="url(#path-1-outside-1_3_4)"/>
</g>
<defs>
<filter id="filter0_b_3_4" x="-3.01599" y="-3.23199" width="470.479" height="56.256" filterUnits="userSpaceOnUse" color-interpolation-filters="sRGB">
<feFlood flood-opacity="0" result="BackgroundImageFix"/>
<feGaussianBlur in="BackgroundImageFix" stdDeviation="2"/>
<feComposite in2="SourceAlpha" operator="in" result="effect1_backgroundBlur_3_4"/>
<feBlend mode="normal" in="SourceGraphic" in2="effect1_backgroundBlur_3_4" result="shape"/>
</filter>
</defs>
</svg>
